<mxfile host="Electron" agent="Mozilla/5.0 (Windows NT 10.0; Win64; x64) AppleWebKit/537.36 (KHTML, like Gecko) draw.io/26.0.4 Chrome/128.0.6613.186 Electron/32.2.5 Safari/537.36" version="26.0.4" pages="7">
  <diagram id="BLUeyZKCRtobPDnhgxea" name="Business Analysis">
    <mxGraphModel dx="1434" dy="836" grid="1" gridSize="10" guides="1" tooltips="1" connect="1" arrows="1" fold="1" page="1" pageScale="1" pageWidth="850" pageHeight="1100" math="0" shadow="0">
      <root>
        <mxCell id="0" />
        <mxCell id="1" parent="0" />
        <mxCell id="qMDnf7X-A5yxX9Ghn0uh-1" value="Comapny Network" style="rounded=1;whiteSpace=wrap;html=1;fillColor=none;verticalAlign=top;" parent="1" vertex="1">
          <mxGeometry x="450" y="100" width="160" height="150" as="geometry" />
        </mxCell>
        <mxCell id="qMDnf7X-A5yxX9Ghn0uh-2" value="User" style="shape=umlActor;verticalLabelPosition=bottom;verticalAlign=top;html=1;outlineConnect=0;" parent="1" vertex="1">
          <mxGeometry x="545" y="144" width="30" height="60" as="geometry" />
        </mxCell>
        <mxCell id="qMDnf7X-A5yxX9Ghn0uh-3" value="Internet" style="rounded=1;whiteSpace=wrap;html=1;fillColor=none;verticalAlign=top;" parent="1" vertex="1">
          <mxGeometry x="210" y="100" width="120" height="150" as="geometry" />
        </mxCell>
        <mxCell id="qMDnf7X-A5yxX9Ghn0uh-4" value="" style="image;points=[];aspect=fixed;html=1;align=center;shadow=0;dashed=0;image=img/lib/allied_telesis/computer_and_terminals/Server_Desktop.svg;" parent="1" vertex="1">
          <mxGeometry x="250" y="150" width="42.599999999999994" height="54" as="geometry" />
        </mxCell>
        <mxCell id="qMDnf7X-A5yxX9Ghn0uh-5" value="" style="image;aspect=fixed;perimeter=ellipsePerimeter;html=1;align=center;shadow=0;dashed=0;spacingTop=3;image=img/lib/active_directory/laptop_client.svg;" parent="1" vertex="1">
          <mxGeometry x="475" y="154" width="45" height="50" as="geometry" />
        </mxCell>
        <mxCell id="qMDnf7X-A5yxX9Ghn0uh-6" value="Download Virus" style="edgeStyle=orthogonalEdgeStyle;rounded=0;orthogonalLoop=1;jettySize=auto;html=1;entryX=0;entryY=0.5;entryDx=0;entryDy=0;" parent="1" source="qMDnf7X-A5yxX9Ghn0uh-4" target="qMDnf7X-A5yxX9Ghn0uh-5" edge="1">
          <mxGeometry relative="1" as="geometry">
            <mxPoint x="380" y="80" as="targetPoint" />
          </mxGeometry>
        </mxCell>
        <mxCell id="qMDnf7X-A5yxX9Ghn0uh-7" value="Comapny Network" style="rounded=1;whiteSpace=wrap;html=1;fillColor=none;verticalAlign=top;" parent="1" vertex="1">
          <mxGeometry x="450" y="380" width="160" height="150" as="geometry" />
        </mxCell>
        <mxCell id="qMDnf7X-A5yxX9Ghn0uh-8" value="User" style="shape=umlActor;verticalLabelPosition=bottom;verticalAlign=top;html=1;outlineConnect=0;" parent="1" vertex="1">
          <mxGeometry x="548" y="424" width="30" height="60" as="geometry" />
        </mxCell>
        <mxCell id="qMDnf7X-A5yxX9Ghn0uh-9" value="Internet" style="rounded=1;whiteSpace=wrap;html=1;fillColor=none;verticalAlign=top;" parent="1" vertex="1">
          <mxGeometry x="210" y="380" width="120" height="150" as="geometry" />
        </mxCell>
        <mxCell id="qMDnf7X-A5yxX9Ghn0uh-10" value="" style="image;points=[];aspect=fixed;html=1;align=center;shadow=0;dashed=0;image=img/lib/allied_telesis/computer_and_terminals/Server_Desktop.svg;" parent="1" vertex="1">
          <mxGeometry x="250" y="434" width="42.599999999999994" height="54" as="geometry" />
        </mxCell>
        <mxCell id="qMDnf7X-A5yxX9Ghn0uh-11" value="Infected Client" style="image;aspect=fixed;perimeter=ellipsePerimeter;html=1;align=center;shadow=0;dashed=0;spacingTop=3;image=img/lib/active_directory/laptop_client.svg;" parent="1" vertex="1">
          <mxGeometry x="478" y="434" width="45" height="50" as="geometry" />
        </mxCell>
        <mxCell id="qMDnf7X-A5yxX9Ghn0uh-12" style="edgeStyle=orthogonalEdgeStyle;rounded=0;orthogonalLoop=1;jettySize=auto;html=1;entryX=0.939;entryY=0.463;entryDx=0;entryDy=0;entryPerimeter=0;" parent="1" source="qMDnf7X-A5yxX9Ghn0uh-11" target="qMDnf7X-A5yxX9Ghn0uh-10" edge="1">
          <mxGeometry relative="1" as="geometry" />
        </mxCell>
        <mxCell id="qMDnf7X-A5yxX9Ghn0uh-13" value="Send Information" style="edgeLabel;html=1;align=center;verticalAlign=middle;resizable=0;points=[];" parent="qMDnf7X-A5yxX9Ghn0uh-12" vertex="1" connectable="0">
          <mxGeometry x="-0.0111" relative="1" as="geometry">
            <mxPoint as="offset" />
          </mxGeometry>
        </mxCell>
      </root>
    </mxGraphModel>
  </diagram>
  <diagram name="Development View" id="6t9SAN1U72ybMFDvSVIl">
    <mxGraphModel dx="1434" dy="836" grid="1" gridSize="10" guides="1" tooltips="1" connect="1" arrows="1" fold="1" page="1" pageScale="1" pageWidth="850" pageHeight="1100" math="0" shadow="0">
      <root>
        <mxCell id="0" />
        <mxCell id="1" parent="0" />
        <mxCell id="kf-lAzsx8UtVmhDej-PZ-1" value="CyberFort Nexus" style="swimlane;whiteSpace=wrap;html=1;fillColor=none;" parent="1" vertex="1">
          <mxGeometry x="180" y="130" width="620" height="1090" as="geometry" />
        </mxCell>
        <mxCell id="gxZcuvE9aINHPfAiAv8m-5" value="" style="rounded=1;whiteSpace=wrap;html=1;fillColor=none;" parent="kf-lAzsx8UtVmhDej-PZ-1" vertex="1">
          <mxGeometry x="110" y="210" width="250" height="100" as="geometry" />
        </mxCell>
        <mxCell id="gxZcuvE9aINHPfAiAv8m-1" value="Intercepting Proxy" style="rounded=1;whiteSpace=wrap;html=1;" parent="kf-lAzsx8UtVmhDej-PZ-1" vertex="1">
          <mxGeometry x="175" y="90" width="120" height="60" as="geometry" />
        </mxCell>
        <mxCell id="gxZcuvE9aINHPfAiAv8m-2" value="Traffic decoder" style="rounded=1;whiteSpace=wrap;html=1;" parent="kf-lAzsx8UtVmhDej-PZ-1" vertex="1">
          <mxGeometry x="125" y="230" width="90" height="60" as="geometry" />
        </mxCell>
        <mxCell id="gxZcuvE9aINHPfAiAv8m-3" value="Traffic decoder" style="rounded=1;whiteSpace=wrap;html=1;" parent="kf-lAzsx8UtVmhDej-PZ-1" vertex="1">
          <mxGeometry x="250" y="230" width="90" height="60" as="geometry" />
        </mxCell>
        <mxCell id="gxZcuvE9aINHPfAiAv8m-6" value="Meta Traffic Storage" style="shape=cylinder3;whiteSpace=wrap;html=1;boundedLbl=1;backgroundOutline=1;size=15;" parent="kf-lAzsx8UtVmhDej-PZ-1" vertex="1">
          <mxGeometry x="520" y="220" width="60" height="80" as="geometry" />
        </mxCell>
        <mxCell id="gxZcuvE9aINHPfAiAv8m-8" value="Network Item Queue" style="strokeWidth=2;html=1;shape=mxgraph.flowchart.direct_data;whiteSpace=wrap;" parent="kf-lAzsx8UtVmhDej-PZ-1" vertex="1">
          <mxGeometry x="130" y="370" width="210" height="50" as="geometry" />
        </mxCell>
        <mxCell id="gxZcuvE9aINHPfAiAv8m-9" value="Sensors" style="rounded=1;whiteSpace=wrap;html=1;verticalAlign=top;" parent="kf-lAzsx8UtVmhDej-PZ-1" vertex="1">
          <mxGeometry x="50" y="480" width="370" height="120" as="geometry" />
        </mxCell>
        <mxCell id="gxZcuvE9aINHPfAiAv8m-10" value="File Sensor" style="rounded=1;whiteSpace=wrap;html=1;" parent="kf-lAzsx8UtVmhDej-PZ-1" vertex="1">
          <mxGeometry x="65" y="510" width="90" height="60" as="geometry" />
        </mxCell>
        <mxCell id="gxZcuvE9aINHPfAiAv8m-11" value="Outbound Sensor 1" style="rounded=1;whiteSpace=wrap;html=1;" parent="kf-lAzsx8UtVmhDej-PZ-1" vertex="1">
          <mxGeometry x="175" y="510" width="90" height="60" as="geometry" />
        </mxCell>
        <mxCell id="gxZcuvE9aINHPfAiAv8m-12" value="Outbound Sensor 2" style="rounded=1;whiteSpace=wrap;html=1;" parent="kf-lAzsx8UtVmhDej-PZ-1" vertex="1">
          <mxGeometry x="290" y="510" width="90" height="60" as="geometry" />
        </mxCell>
        <mxCell id="gxZcuvE9aINHPfAiAv8m-13" value="Threat Queue" style="strokeWidth=2;html=1;shape=mxgraph.flowchart.direct_data;whiteSpace=wrap;" parent="kf-lAzsx8UtVmhDej-PZ-1" vertex="1">
          <mxGeometry x="130" y="640" width="210" height="50" as="geometry" />
        </mxCell>
        <mxCell id="gxZcuvE9aINHPfAiAv8m-16" value="Sensor Repository" style="shape=cylinder3;whiteSpace=wrap;html=1;boundedLbl=1;backgroundOutline=1;size=15;" parent="kf-lAzsx8UtVmhDej-PZ-1" vertex="1">
          <mxGeometry x="470" y="500" width="60" height="80" as="geometry" />
        </mxCell>
        <mxCell id="gxZcuvE9aINHPfAiAv8m-18" value="ACI" style="rounded=1;whiteSpace=wrap;html=1;verticalAlign=top;" parent="kf-lAzsx8UtVmhDej-PZ-1" vertex="1">
          <mxGeometry x="50" y="730" width="370" height="120" as="geometry" />
        </mxCell>
        <mxCell id="gxZcuvE9aINHPfAiAv8m-19" value="Investigator" style="rounded=1;whiteSpace=wrap;html=1;" parent="kf-lAzsx8UtVmhDej-PZ-1" vertex="1">
          <mxGeometry x="110" y="760" width="90" height="60" as="geometry" />
        </mxCell>
        <mxCell id="gxZcuvE9aINHPfAiAv8m-20" value="Investigator" style="rounded=1;whiteSpace=wrap;html=1;" parent="kf-lAzsx8UtVmhDej-PZ-1" vertex="1">
          <mxGeometry x="270" y="760" width="90" height="60" as="geometry" />
        </mxCell>
        <mxCell id="gxZcuvE9aINHPfAiAv8m-21" value="Control Center" style="rounded=1;whiteSpace=wrap;html=1;" parent="kf-lAzsx8UtVmhDej-PZ-1" vertex="1">
          <mxGeometry x="59" y="940" width="360" height="60" as="geometry" />
        </mxCell>
        <mxCell id="gxZcuvE9aINHPfAiAv8m-22" value="API Gateway" style="rounded=1;whiteSpace=wrap;html=1;" parent="kf-lAzsx8UtVmhDej-PZ-1" vertex="1">
          <mxGeometry x="59" y="910" width="360" height="30" as="geometry" />
        </mxCell>
        <mxCell id="gxZcuvE9aINHPfAiAv8m-23" value="ACI&#39;s" style="shape=cylinder3;whiteSpace=wrap;html=1;boundedLbl=1;backgroundOutline=1;size=15;" parent="kf-lAzsx8UtVmhDej-PZ-1" vertex="1">
          <mxGeometry x="460" y="770" width="60" height="80" as="geometry" />
        </mxCell>
        <mxCell id="gxZcuvE9aINHPfAiAv8m-24" value="Web Server" style="rounded=1;whiteSpace=wrap;html=1;" parent="kf-lAzsx8UtVmhDej-PZ-1" vertex="1">
          <mxGeometry x="59" y="1000" width="360" height="30" as="geometry" />
        </mxCell>
        <mxCell id="gxZcuvE9aINHPfAiAv8m-28" value="" style="endArrow=classic;html=1;rounded=0;exitX=0.5;exitY=1;exitDx=0;exitDy=0;entryX=0.5;entryY=0;entryDx=0;entryDy=0;" parent="kf-lAzsx8UtVmhDej-PZ-1" source="gxZcuvE9aINHPfAiAv8m-1" target="gxZcuvE9aINHPfAiAv8m-5" edge="1">
          <mxGeometry width="50" height="50" relative="1" as="geometry">
            <mxPoint x="-30" y="130" as="sourcePoint" />
            <mxPoint x="180" y="130" as="targetPoint" />
          </mxGeometry>
        </mxCell>
        <mxCell id="gxZcuvE9aINHPfAiAv8m-29" value="" style="endArrow=classic;html=1;rounded=0;exitX=0.5;exitY=1;exitDx=0;exitDy=0;entryX=0.5;entryY=0;entryDx=0;entryDy=0;entryPerimeter=0;" parent="kf-lAzsx8UtVmhDej-PZ-1" source="gxZcuvE9aINHPfAiAv8m-5" target="gxZcuvE9aINHPfAiAv8m-8" edge="1">
          <mxGeometry width="50" height="50" relative="1" as="geometry">
            <mxPoint x="-20" y="140" as="sourcePoint" />
            <mxPoint x="190" y="140" as="targetPoint" />
          </mxGeometry>
        </mxCell>
        <mxCell id="gxZcuvE9aINHPfAiAv8m-30" value="" style="endArrow=classic;html=1;rounded=0;exitX=0.5;exitY=1;exitDx=0;exitDy=0;exitPerimeter=0;entryX=0.5;entryY=0;entryDx=0;entryDy=0;" parent="kf-lAzsx8UtVmhDej-PZ-1" source="gxZcuvE9aINHPfAiAv8m-8" target="gxZcuvE9aINHPfAiAv8m-9" edge="1">
          <mxGeometry width="50" height="50" relative="1" as="geometry">
            <mxPoint x="-10" y="150" as="sourcePoint" />
            <mxPoint x="200" y="150" as="targetPoint" />
          </mxGeometry>
        </mxCell>
        <mxCell id="gxZcuvE9aINHPfAiAv8m-31" value="" style="endArrow=classic;html=1;rounded=0;exitX=0.5;exitY=1;exitDx=0;exitDy=0;entryX=0.5;entryY=0;entryDx=0;entryDy=0;entryPerimeter=0;" parent="kf-lAzsx8UtVmhDej-PZ-1" source="gxZcuvE9aINHPfAiAv8m-9" target="gxZcuvE9aINHPfAiAv8m-13" edge="1">
          <mxGeometry width="50" height="50" relative="1" as="geometry">
            <mxPoint y="160" as="sourcePoint" />
            <mxPoint x="210" y="160" as="targetPoint" />
          </mxGeometry>
        </mxCell>
        <mxCell id="gxZcuvE9aINHPfAiAv8m-32" value="" style="endArrow=classic;html=1;rounded=0;exitX=0.5;exitY=1;exitDx=0;exitDy=0;exitPerimeter=0;entryX=0.5;entryY=0;entryDx=0;entryDy=0;" parent="kf-lAzsx8UtVmhDej-PZ-1" source="gxZcuvE9aINHPfAiAv8m-13" target="gxZcuvE9aINHPfAiAv8m-18" edge="1">
          <mxGeometry width="50" height="50" relative="1" as="geometry">
            <mxPoint x="10" y="170" as="sourcePoint" />
            <mxPoint x="220" y="170" as="targetPoint" />
          </mxGeometry>
        </mxCell>
        <mxCell id="gxZcuvE9aINHPfAiAv8m-36" value="" style="endArrow=classic;html=1;rounded=0;exitX=1;exitY=0.5;exitDx=0;exitDy=0;entryX=0;entryY=0.5;entryDx=0;entryDy=0;entryPerimeter=0;" parent="kf-lAzsx8UtVmhDej-PZ-1" source="gxZcuvE9aINHPfAiAv8m-5" target="gxZcuvE9aINHPfAiAv8m-6" edge="1">
          <mxGeometry width="50" height="50" relative="1" as="geometry">
            <mxPoint x="255" y="330" as="sourcePoint" />
            <mxPoint x="255" y="390" as="targetPoint" />
          </mxGeometry>
        </mxCell>
        <mxCell id="gxZcuvE9aINHPfAiAv8m-38" value="" style="endArrow=classic;html=1;rounded=0;exitX=0;exitY=0.5;exitDx=0;exitDy=0;exitPerimeter=0;entryX=0.999;entryY=0.674;entryDx=0;entryDy=0;entryPerimeter=0;" parent="kf-lAzsx8UtVmhDej-PZ-1" source="gxZcuvE9aINHPfAiAv8m-23" target="gxZcuvE9aINHPfAiAv8m-18" edge="1">
          <mxGeometry width="50" height="50" relative="1" as="geometry">
            <mxPoint x="245" y="430" as="sourcePoint" />
            <mxPoint x="245" y="490" as="targetPoint" />
          </mxGeometry>
        </mxCell>
        <mxCell id="gxZcuvE9aINHPfAiAv8m-39" value="" style="endArrow=classic;html=1;rounded=0;exitX=0.5;exitY=1;exitDx=0;exitDy=0;exitPerimeter=0;entryX=1.001;entryY=0.181;entryDx=0;entryDy=0;entryPerimeter=0;" parent="kf-lAzsx8UtVmhDej-PZ-1" source="gxZcuvE9aINHPfAiAv8m-6" target="gxZcuvE9aINHPfAiAv8m-18" edge="1">
          <mxGeometry width="50" height="50" relative="1" as="geometry">
            <mxPoint x="280" y="610" as="sourcePoint" />
            <mxPoint x="330" y="560" as="targetPoint" />
            <Array as="points">
              <mxPoint x="550" y="750" />
            </Array>
          </mxGeometry>
        </mxCell>
        <mxCell id="gxZcuvE9aINHPfAiAv8m-40" value="" style="endArrow=classic;html=1;rounded=0;entryX=1;entryY=0.5;entryDx=0;entryDy=0;exitX=0;exitY=0.5;exitDx=0;exitDy=0;exitPerimeter=0;" parent="kf-lAzsx8UtVmhDej-PZ-1" source="gxZcuvE9aINHPfAiAv8m-16" target="gxZcuvE9aINHPfAiAv8m-9" edge="1">
          <mxGeometry width="50" height="50" relative="1" as="geometry">
            <mxPoint x="280" y="610" as="sourcePoint" />
            <mxPoint x="330" y="560" as="targetPoint" />
          </mxGeometry>
        </mxCell>
        <mxCell id="2NbXABPjhj1sR9MmAf0S-1" value="Traffic decode identifies emails and HTTP requests in the IP traffic" style="strokeWidth=1;shadow=0;dashed=0;align=center;html=1;shape=mxgraph.mockup.text.stickyNote2;fontColor=#666666;mainText=;fontSize=17;whiteSpace=wrap;fillColor=#ffffcc;strokeColor=#F62E00;" parent="kf-lAzsx8UtVmhDej-PZ-1" vertex="1">
          <mxGeometry x="340" y="80" width="190" height="150" as="geometry" />
        </mxCell>
        <mxCell id="2NbXABPjhj1sR9MmAf0S-2" value="Relevant decoded items (emails, HTTP requests) are stored in the queue to be processed by the sensors" style="strokeWidth=1;shadow=0;dashed=0;align=center;html=1;shape=mxgraph.mockup.text.stickyNote2;fontColor=#666666;mainText=;fontSize=17;whiteSpace=wrap;fillColor=#ffffcc;strokeColor=#F62E00;" parent="kf-lAzsx8UtVmhDej-PZ-1" vertex="1">
          <mxGeometry x="340" y="320" width="190" height="150" as="geometry" />
        </mxCell>
        <mxCell id="8PeeyVO6HO0nktvntNBS-1" value="Audit Storage" style="shape=cylinder3;whiteSpace=wrap;html=1;boundedLbl=1;backgroundOutline=1;size=15;" parent="kf-lAzsx8UtVmhDej-PZ-1" vertex="1">
          <mxGeometry x="470" y="600" width="60" height="80" as="geometry" />
        </mxCell>
        <mxCell id="8PeeyVO6HO0nktvntNBS-2" value="" style="endArrow=classic;html=1;rounded=0;exitX=0.9;exitY=1.008;exitDx=0;exitDy=0;exitPerimeter=0;edgeStyle=orthogonalEdgeStyle;entryX=0;entryY=0.5;entryDx=0;entryDy=0;entryPerimeter=0;" parent="kf-lAzsx8UtVmhDej-PZ-1" source="gxZcuvE9aINHPfAiAv8m-9" target="8PeeyVO6HO0nktvntNBS-1" edge="1">
          <mxGeometry width="50" height="50" relative="1" as="geometry">
            <mxPoint x="390" y="650" as="sourcePoint" />
            <mxPoint x="460" y="647" as="targetPoint" />
          </mxGeometry>
        </mxCell>
        <mxCell id="8PeeyVO6HO0nktvntNBS-3" value="" style="endArrow=classic;html=1;rounded=0;exitX=0.895;exitY=0.008;exitDx=0;exitDy=0;exitPerimeter=0;edgeStyle=orthogonalEdgeStyle;entryX=0;entryY=0.5;entryDx=0;entryDy=0;entryPerimeter=0;" parent="kf-lAzsx8UtVmhDej-PZ-1" source="gxZcuvE9aINHPfAiAv8m-18" target="8PeeyVO6HO0nktvntNBS-1" edge="1">
          <mxGeometry width="50" height="50" relative="1" as="geometry">
            <mxPoint x="393" y="611" as="sourcePoint" />
            <mxPoint x="450" y="640" as="targetPoint" />
            <Array as="points">
              <mxPoint x="381" y="640" />
            </Array>
          </mxGeometry>
        </mxCell>
        <mxCell id="p6f4xXNt68_7-A54Nw9m-1" value="" style="endArrow=classic;html=1;rounded=0;entryX=0.75;entryY=0;entryDx=0;entryDy=0;exitX=0.5;exitY=1;exitDx=0;exitDy=0;exitPerimeter=0;edgeStyle=orthogonalEdgeStyle;startArrow=classic;startFill=1;" edge="1" parent="kf-lAzsx8UtVmhDej-PZ-1" source="gxZcuvE9aINHPfAiAv8m-23" target="gxZcuvE9aINHPfAiAv8m-22">
          <mxGeometry width="50" height="50" relative="1" as="geometry">
            <mxPoint x="248" y="860" as="sourcePoint" />
            <mxPoint x="249" y="920" as="targetPoint" />
          </mxGeometry>
        </mxCell>
        <mxCell id="p6f4xXNt68_7-A54Nw9m-2" value="User repo" style="shape=cylinder3;whiteSpace=wrap;html=1;boundedLbl=1;backgroundOutline=1;size=15;" vertex="1" parent="kf-lAzsx8UtVmhDej-PZ-1">
          <mxGeometry x="500" y="960" width="60" height="80" as="geometry" />
        </mxCell>
        <mxCell id="gxZcuvE9aINHPfAiAv8m-41" value="" style="endArrow=classic;html=1;rounded=0;exitX=0.5;exitY=1;exitDx=0;exitDy=0;exitPerimeter=0;entryX=1;entryY=0.25;entryDx=0;entryDy=0;" parent="kf-lAzsx8UtVmhDej-PZ-1" source="gxZcuvE9aINHPfAiAv8m-6" edge="1" target="gxZcuvE9aINHPfAiAv8m-22">
          <mxGeometry width="50" height="50" relative="1" as="geometry">
            <mxPoint x="560" y="310" as="sourcePoint" />
            <mxPoint x="420" y="970" as="targetPoint" />
            <Array as="points">
              <mxPoint x="550" y="918" />
              <mxPoint x="500" y="918" />
            </Array>
          </mxGeometry>
        </mxCell>
        <mxCell id="p6f4xXNt68_7-A54Nw9m-4" value="" style="endArrow=classic;html=1;rounded=0;entryX=1;entryY=0.5;entryDx=0;entryDy=0;exitX=0;exitY=0.588;exitDx=0;exitDy=0;exitPerimeter=0;edgeStyle=orthogonalEdgeStyle;startArrow=classic;startFill=1;" edge="1" parent="kf-lAzsx8UtVmhDej-PZ-1" source="p6f4xXNt68_7-A54Nw9m-2" target="gxZcuvE9aINHPfAiAv8m-22">
          <mxGeometry width="50" height="50" relative="1" as="geometry">
            <mxPoint x="500" y="860" as="sourcePoint" />
            <mxPoint x="339" y="920" as="targetPoint" />
          </mxGeometry>
        </mxCell>
        <mxCell id="kWV1a10ZNScwoARnbSHR-1" value="Gateway" style="shape=cube;whiteSpace=wrap;html=1;boundedLbl=1;backgroundOutline=1;darkOpacity=0.05;darkOpacity2=0.1;" parent="1" vertex="1">
          <mxGeometry x="20" y="200" width="120" height="80" as="geometry" />
        </mxCell>
        <mxCell id="gxZcuvE9aINHPfAiAv8m-14" value="Traffic loader can be scaled-out to multiple machines&lt;div&gt;Scaling out happens by observing the queue&lt;/div&gt;" style="strokeWidth=1;shadow=0;dashed=0;align=center;html=1;shape=mxgraph.mockup.text.stickyNote2;fontColor=#666666;mainText=;fontSize=17;whiteSpace=wrap;fillColor=#ffffcc;strokeColor=#F62E00;" parent="1" vertex="1">
          <mxGeometry x="40" y="320" width="190" height="150" as="geometry" />
        </mxCell>
        <mxCell id="gxZcuvE9aINHPfAiAv8m-15" value="Sensors can be grouped on different machines" style="strokeWidth=1;shadow=0;dashed=0;align=center;html=1;shape=mxgraph.mockup.text.stickyNote2;fontColor=#666666;mainText=;fontSize=17;whiteSpace=wrap;fillColor=#ffffcc;strokeColor=#F62E00;" parent="1" vertex="1">
          <mxGeometry x="50" y="610" width="190" height="150" as="geometry" />
        </mxCell>
        <mxCell id="gxZcuvE9aINHPfAiAv8m-25" value="Web Application" style="verticalLabelPosition=bottom;verticalAlign=top;html=1;shape=mxgraph.basic.frame;dx=10;whiteSpace=wrap;" parent="1" vertex="1">
          <mxGeometry x="369" y="1270" width="100" height="60" as="geometry" />
        </mxCell>
        <mxCell id="gxZcuvE9aINHPfAiAv8m-27" value="" style="endArrow=classic;html=1;rounded=0;exitX=0;exitY=0;exitDx=120;exitDy=50;exitPerimeter=0;" parent="1" source="kWV1a10ZNScwoARnbSHR-1" target="gxZcuvE9aINHPfAiAv8m-1" edge="1">
          <mxGeometry width="50" height="50" relative="1" as="geometry">
            <mxPoint x="550" y="780" as="sourcePoint" />
            <mxPoint x="600" y="730" as="targetPoint" />
          </mxGeometry>
        </mxCell>
        <mxCell id="gxZcuvE9aINHPfAiAv8m-33" value="ACI routines can be allocated to multiple nodes" style="strokeWidth=1;shadow=0;dashed=0;align=center;html=1;shape=mxgraph.mockup.text.stickyNote2;fontColor=#666666;mainText=;fontSize=17;whiteSpace=wrap;fillColor=#ffffcc;strokeColor=#F62E00;" parent="1" vertex="1">
          <mxGeometry x="50" y="840" width="190" height="150" as="geometry" />
        </mxCell>
        <mxCell id="gxZcuvE9aINHPfAiAv8m-35" value="" style="endArrow=classic;html=1;rounded=0;entryX=0.5;entryY=0;entryDx=0;entryDy=0;" parent="1" target="gxZcuvE9aINHPfAiAv8m-22" edge="1">
          <mxGeometry width="50" height="50" relative="1" as="geometry">
            <mxPoint x="418" y="980" as="sourcePoint" />
            <mxPoint x="425" y="510" as="targetPoint" />
          </mxGeometry>
        </mxCell>
        <mxCell id="gxZcuvE9aINHPfAiAv8m-37" value="" style="endArrow=classic;startArrow=classic;html=1;rounded=0;entryX=0.5;entryY=1;entryDx=0;entryDy=0;exitX=0.5;exitY=0;exitDx=0;exitDy=0;exitPerimeter=0;" parent="1" source="gxZcuvE9aINHPfAiAv8m-25" target="gxZcuvE9aINHPfAiAv8m-24" edge="1">
          <mxGeometry width="50" height="50" relative="1" as="geometry">
            <mxPoint x="280" y="1310" as="sourcePoint" />
            <mxPoint x="330" y="1260" as="targetPoint" />
          </mxGeometry>
        </mxCell>
      </root>
    </mxGraphModel>
  </diagram>
  <diagram id="N1ckhTCXTY3d2tZH6ZEj" name="Use Cases">
    <mxGraphModel dx="1050" dy="621" grid="1" gridSize="10" guides="1" tooltips="1" connect="1" arrows="1" fold="1" page="1" pageScale="1" pageWidth="850" pageHeight="1100" math="0" shadow="0">
      <root>
        <mxCell id="0" />
        <mxCell id="1" parent="0" />
        <mxCell id="1Ac_iRLR930y-d-yVKRN-1" style="edgeStyle=orthogonalEdgeStyle;rounded=0;orthogonalLoop=1;jettySize=auto;html=1;exitX=1;exitY=0.3333333333333333;exitDx=0;exitDy=0;exitPerimeter=0;entryX=0;entryY=0.5;entryDx=0;entryDy=0;" edge="1" parent="1" source="1Ac_iRLR930y-d-yVKRN-2" target="1Ac_iRLR930y-d-yVKRN-8">
          <mxGeometry relative="1" as="geometry" />
        </mxCell>
        <mxCell id="1Ac_iRLR930y-d-yVKRN-2" value="Administrator" style="shape=umlActor;verticalLabelPosition=bottom;verticalAlign=top;html=1;outlineConnect=0;" vertex="1" parent="1">
          <mxGeometry x="110" y="250" width="30" height="60" as="geometry" />
        </mxCell>
        <mxCell id="1Ac_iRLR930y-d-yVKRN-3" style="edgeStyle=orthogonalEdgeStyle;rounded=0;orthogonalLoop=1;jettySize=auto;html=1;exitX=1;exitY=0.3333333333333333;exitDx=0;exitDy=0;exitPerimeter=0;entryX=0;entryY=0.5;entryDx=0;entryDy=0;" edge="1" parent="1" source="1Ac_iRLR930y-d-yVKRN-6" target="1Ac_iRLR930y-d-yVKRN-13">
          <mxGeometry relative="1" as="geometry" />
        </mxCell>
        <mxCell id="1Ac_iRLR930y-d-yVKRN-4" style="edgeStyle=orthogonalEdgeStyle;rounded=0;orthogonalLoop=1;jettySize=auto;html=1;exitX=1;exitY=0.3333333333333333;exitDx=0;exitDy=0;exitPerimeter=0;entryX=0;entryY=0.5;entryDx=0;entryDy=0;" edge="1" parent="1" source="1Ac_iRLR930y-d-yVKRN-6" target="1Ac_iRLR930y-d-yVKRN-14">
          <mxGeometry relative="1" as="geometry" />
        </mxCell>
        <mxCell id="1Ac_iRLR930y-d-yVKRN-5" style="edgeStyle=orthogonalEdgeStyle;rounded=0;orthogonalLoop=1;jettySize=auto;html=1;entryX=0;entryY=0.5;entryDx=0;entryDy=0;" edge="1" parent="1" target="1Ac_iRLR930y-d-yVKRN-15">
          <mxGeometry relative="1" as="geometry">
            <mxPoint x="140" y="620" as="sourcePoint" />
          </mxGeometry>
        </mxCell>
        <mxCell id="1Ac_iRLR930y-d-yVKRN-6" value="Cyber Analyst" style="shape=umlActor;verticalLabelPosition=bottom;verticalAlign=top;html=1;outlineConnect=0;" vertex="1" parent="1">
          <mxGeometry x="110" y="600" width="30" height="60" as="geometry" />
        </mxCell>
        <mxCell id="1Ac_iRLR930y-d-yVKRN-7" value="Extends" style="endArrow=block;endSize=16;endFill=0;html=1;rounded=0;entryX=0.5;entryY=0;entryDx=0;entryDy=0;entryPerimeter=0;" edge="1" parent="1" source="1Ac_iRLR930y-d-yVKRN-2" target="1Ac_iRLR930y-d-yVKRN-6">
          <mxGeometry width="160" relative="1" as="geometry">
            <mxPoint x="340" y="320" as="sourcePoint" />
            <mxPoint x="500" y="320" as="targetPoint" />
          </mxGeometry>
        </mxCell>
        <mxCell id="1Ac_iRLR930y-d-yVKRN-8" value="Maintain" style="ellipse;whiteSpace=wrap;html=1;" vertex="1" parent="1">
          <mxGeometry x="230" y="245" width="104" height="50" as="geometry" />
        </mxCell>
        <mxCell id="1Ac_iRLR930y-d-yVKRN-9" value="Install" style="ellipse;whiteSpace=wrap;html=1;" vertex="1" parent="1">
          <mxGeometry x="400" y="175" width="100" height="50" as="geometry" />
        </mxCell>
        <mxCell id="1Ac_iRLR930y-d-yVKRN-10" value="Update" style="ellipse;whiteSpace=wrap;html=1;" vertex="1" parent="1">
          <mxGeometry x="400" y="315" width="110" height="50" as="geometry" />
        </mxCell>
        <mxCell id="1Ac_iRLR930y-d-yVKRN-11" value="New Version" style="ellipse;whiteSpace=wrap;html=1;" vertex="1" parent="1">
          <mxGeometry x="550" y="255" width="100" height="50" as="geometry" />
        </mxCell>
        <mxCell id="1Ac_iRLR930y-d-yVKRN-12" value="Update Rule Engine" style="ellipse;whiteSpace=wrap;html=1;" vertex="1" parent="1">
          <mxGeometry x="550" y="365" width="100" height="50" as="geometry" />
        </mxCell>
        <mxCell id="1Ac_iRLR930y-d-yVKRN-13" value="Configure ACI" style="ellipse;whiteSpace=wrap;html=1;" vertex="1" parent="1">
          <mxGeometry x="240" y="580" width="104" height="50" as="geometry" />
        </mxCell>
        <mxCell id="1Ac_iRLR930y-d-yVKRN-14" value="Investigate Threats" style="ellipse;whiteSpace=wrap;html=1;" vertex="1" parent="1">
          <mxGeometry x="240" y="771" width="104" height="50" as="geometry" />
        </mxCell>
        <mxCell id="1Ac_iRLR930y-d-yVKRN-15" value="Review Threats" style="ellipse;whiteSpace=wrap;html=1;" vertex="1" parent="1">
          <mxGeometry x="240" y="931" width="104" height="50" as="geometry" />
        </mxCell>
        <mxCell id="1Ac_iRLR930y-d-yVKRN-16" value="&amp;lt;&amp;lt;includes&amp;gt;&amp;gt;" style="endArrow=open;endSize=12;dashed=1;html=1;rounded=0;exitX=1;exitY=0.5;exitDx=0;exitDy=0;entryX=0;entryY=0.5;entryDx=0;entryDy=0;" edge="1" parent="1" source="1Ac_iRLR930y-d-yVKRN-8" target="1Ac_iRLR930y-d-yVKRN-9">
          <mxGeometry width="160" relative="1" as="geometry">
            <mxPoint x="460" y="365" as="sourcePoint" />
            <mxPoint x="620" y="365" as="targetPoint" />
          </mxGeometry>
        </mxCell>
        <mxCell id="1Ac_iRLR930y-d-yVKRN-17" value="&amp;lt;&amp;lt;includes&amp;gt;&amp;gt;" style="endArrow=open;endSize=12;dashed=1;html=1;rounded=0;exitX=1;exitY=0.5;exitDx=0;exitDy=0;entryX=0;entryY=0.5;entryDx=0;entryDy=0;" edge="1" parent="1" source="1Ac_iRLR930y-d-yVKRN-8" target="1Ac_iRLR930y-d-yVKRN-10">
          <mxGeometry width="160" relative="1" as="geometry">
            <mxPoint x="344" y="280" as="sourcePoint" />
            <mxPoint x="410" y="210" as="targetPoint" />
          </mxGeometry>
        </mxCell>
        <mxCell id="1Ac_iRLR930y-d-yVKRN-18" value="&amp;lt;&amp;lt;extends&amp;gt;&amp;gt;" style="endArrow=open;endSize=12;dashed=1;html=1;rounded=0;exitX=0;exitY=0.5;exitDx=0;exitDy=0;entryX=1;entryY=0;entryDx=0;entryDy=0;" edge="1" parent="1" source="1Ac_iRLR930y-d-yVKRN-11" target="1Ac_iRLR930y-d-yVKRN-10">
          <mxGeometry width="160" relative="1" as="geometry">
            <mxPoint x="354" y="290" as="sourcePoint" />
            <mxPoint x="420" y="220" as="targetPoint" />
          </mxGeometry>
        </mxCell>
        <mxCell id="1Ac_iRLR930y-d-yVKRN-19" value="&amp;lt;&amp;lt;extends&amp;gt;&amp;gt;" style="endArrow=open;endSize=12;dashed=1;html=1;rounded=0;exitX=0;exitY=0.5;exitDx=0;exitDy=0;entryX=0.92;entryY=0.832;entryDx=0;entryDy=0;entryPerimeter=0;" edge="1" parent="1" source="1Ac_iRLR930y-d-yVKRN-12" target="1Ac_iRLR930y-d-yVKRN-10">
          <mxGeometry width="160" relative="1" as="geometry">
            <mxPoint x="560" y="290" as="sourcePoint" />
            <mxPoint x="504" y="332" as="targetPoint" />
          </mxGeometry>
        </mxCell>
        <mxCell id="1Ac_iRLR930y-d-yVKRN-20" value="Add/Remove alerts from investigation" style="ellipse;whiteSpace=wrap;html=1;" vertex="1" parent="1">
          <mxGeometry x="441" y="580" width="110" height="50" as="geometry" />
        </mxCell>
        <mxCell id="1Ac_iRLR930y-d-yVKRN-21" value="View infected machines" style="ellipse;whiteSpace=wrap;html=1;" vertex="1" parent="1">
          <mxGeometry x="441" y="891" width="104" height="50" as="geometry" />
        </mxCell>
        <mxCell id="1Ac_iRLR930y-d-yVKRN-22" value="View malicious HTTP requests" style="ellipse;whiteSpace=wrap;html=1;" vertex="1" parent="1">
          <mxGeometry x="441" y="971" width="104" height="50" as="geometry" />
        </mxCell>
        <mxCell id="1Ac_iRLR930y-d-yVKRN-23" value="View IP meta history" style="ellipse;whiteSpace=wrap;html=1;" vertex="1" parent="1">
          <mxGeometry x="441" y="801" width="104" height="50" as="geometry" />
        </mxCell>
        <mxCell id="1Ac_iRLR930y-d-yVKRN-24" value="Add/delete sensors from ACI investigation" style="ellipse;whiteSpace=wrap;html=1;" vertex="1" parent="1">
          <mxGeometry x="441" y="650" width="110" height="50" as="geometry" />
        </mxCell>
        <mxCell id="1Ac_iRLR930y-d-yVKRN-25" value="Notified about threat by Investigation" style="ellipse;whiteSpace=wrap;html=1;" vertex="1" parent="1">
          <mxGeometry x="441" y="731" width="104" height="50" as="geometry" />
        </mxCell>
        <mxCell id="1Ac_iRLR930y-d-yVKRN-26" value="&amp;lt;&amp;lt;extends&amp;gt;&amp;gt;" style="endArrow=open;endSize=12;dashed=1;html=1;rounded=0;exitX=0;exitY=0.5;exitDx=0;exitDy=0;entryX=1;entryY=0.5;entryDx=0;entryDy=0;" edge="1" parent="1" source="1Ac_iRLR930y-d-yVKRN-20" target="1Ac_iRLR930y-d-yVKRN-13">
          <mxGeometry width="160" relative="1" as="geometry">
            <mxPoint x="560" y="295" as="sourcePoint" />
            <mxPoint x="504" y="337" as="targetPoint" />
          </mxGeometry>
        </mxCell>
        <mxCell id="1Ac_iRLR930y-d-yVKRN-27" value="&amp;lt;&amp;lt;extends&amp;gt;&amp;gt;" style="endArrow=open;endSize=12;dashed=1;html=1;rounded=0;exitX=0;exitY=0.5;exitDx=0;exitDy=0;entryX=1;entryY=1;entryDx=0;entryDy=0;" edge="1" parent="1" source="1Ac_iRLR930y-d-yVKRN-24" target="1Ac_iRLR930y-d-yVKRN-13">
          <mxGeometry width="160" relative="1" as="geometry">
            <mxPoint x="430" y="565" as="sourcePoint" />
            <mxPoint x="354" y="615" as="targetPoint" />
          </mxGeometry>
        </mxCell>
        <mxCell id="1Ac_iRLR930y-d-yVKRN-28" value="&amp;lt;&amp;lt;extends&amp;gt;&amp;gt;" style="endArrow=open;endSize=12;dashed=1;html=1;rounded=0;exitX=0;exitY=0.5;exitDx=0;exitDy=0;entryX=1;entryY=0;entryDx=0;entryDy=0;" edge="1" parent="1" source="1Ac_iRLR930y-d-yVKRN-25" target="1Ac_iRLR930y-d-yVKRN-14">
          <mxGeometry width="160" relative="1" as="geometry">
            <mxPoint x="430" y="596" as="sourcePoint" />
            <mxPoint x="339" y="628" as="targetPoint" />
          </mxGeometry>
        </mxCell>
        <mxCell id="1Ac_iRLR930y-d-yVKRN-29" value="&amp;lt;&amp;lt;extends&amp;gt;&amp;gt;" style="endArrow=open;endSize=12;dashed=1;html=1;rounded=0;exitX=0;exitY=0.5;exitDx=0;exitDy=0;entryX=0.927;entryY=0.832;entryDx=0;entryDy=0;entryPerimeter=0;" edge="1" parent="1" source="1Ac_iRLR930y-d-yVKRN-23" target="1Ac_iRLR930y-d-yVKRN-14">
          <mxGeometry width="160" relative="1" as="geometry">
            <mxPoint x="440" y="606" as="sourcePoint" />
            <mxPoint x="349" y="638" as="targetPoint" />
          </mxGeometry>
        </mxCell>
        <mxCell id="1Ac_iRLR930y-d-yVKRN-30" value="&amp;lt;&amp;lt;extends&amp;gt;&amp;gt;" style="endArrow=open;endSize=12;dashed=1;html=1;rounded=0;exitX=0;exitY=0.5;exitDx=0;exitDy=0;entryX=1;entryY=0;entryDx=0;entryDy=0;" edge="1" parent="1" source="1Ac_iRLR930y-d-yVKRN-21" target="1Ac_iRLR930y-d-yVKRN-15">
          <mxGeometry width="160" relative="1" as="geometry">
            <mxPoint x="450" y="616" as="sourcePoint" />
            <mxPoint x="359" y="648" as="targetPoint" />
          </mxGeometry>
        </mxCell>
        <mxCell id="1Ac_iRLR930y-d-yVKRN-31" value="&amp;lt;&amp;lt;extends&amp;gt;&amp;gt;" style="endArrow=open;endSize=12;dashed=1;html=1;rounded=0;exitX=0;exitY=0.5;exitDx=0;exitDy=0;entryX=1;entryY=1;entryDx=0;entryDy=0;" edge="1" parent="1" source="1Ac_iRLR930y-d-yVKRN-22" target="1Ac_iRLR930y-d-yVKRN-15">
          <mxGeometry width="160" relative="1" as="geometry">
            <mxPoint x="460" y="626" as="sourcePoint" />
            <mxPoint x="369" y="658" as="targetPoint" />
          </mxGeometry>
        </mxCell>
        <mxCell id="1Ac_iRLR930y-d-yVKRN-32" value="Add/Remove alerts from investigation" style="ellipse;whiteSpace=wrap;html=1;" vertex="1" parent="1">
          <mxGeometry x="446" y="510" width="104" height="50" as="geometry" />
        </mxCell>
        <mxCell id="1Ac_iRLR930y-d-yVKRN-33" value="&amp;lt;&amp;lt;extends&amp;gt;&amp;gt;" style="endArrow=open;endSize=12;dashed=1;html=1;rounded=0;exitX=0;exitY=0.5;exitDx=0;exitDy=0;entryX=1;entryY=0;entryDx=0;entryDy=0;" edge="1" parent="1" source="1Ac_iRLR930y-d-yVKRN-32" target="1Ac_iRLR930y-d-yVKRN-13">
          <mxGeometry width="160" relative="1" as="geometry">
            <mxPoint x="430" y="565" as="sourcePoint" />
            <mxPoint x="339" y="597" as="targetPoint" />
          </mxGeometry>
        </mxCell>
      </root>
    </mxGraphModel>
  </diagram>
  <diagram id="kIVjQliDI4bW3asNRXp0" name="Workflow Thread Detection">
    <mxGraphModel dx="1434" dy="836" grid="1" gridSize="10" guides="1" tooltips="1" connect="1" arrows="1" fold="1" page="1" pageScale="1" pageWidth="850" pageHeight="1100" math="0" shadow="0">
      <root>
        <mxCell id="0" />
        <mxCell id="1" parent="0" />
        <mxCell id="YS6Xps763IDJkA6cA54Z-2" value="" style="ellipse;html=1;shape=startState;fillColor=#000000;strokeColor=#ff0000;" vertex="1" parent="1">
          <mxGeometry x="180" y="120" width="30" height="30" as="geometry" />
        </mxCell>
        <mxCell id="YS6Xps763IDJkA6cA54Z-3" value="" style="edgeStyle=orthogonalEdgeStyle;html=1;verticalAlign=bottom;endArrow=open;endSize=8;strokeColor=#ff0000;rounded=0;entryX=0.5;entryY=0;entryDx=0;entryDy=0;" edge="1" parent="1" source="YS6Xps763IDJkA6cA54Z-2" target="YS6Xps763IDJkA6cA54Z-4">
          <mxGeometry relative="1" as="geometry">
            <mxPoint x="195" y="210" as="targetPoint" />
          </mxGeometry>
        </mxCell>
        <mxCell id="YS6Xps763IDJkA6cA54Z-4" value="Scan network packages" style="rounded=1;whiteSpace=wrap;html=1;arcSize=40;fontColor=#000000;fillColor=#ffffc0;strokeColor=#ff0000;" vertex="1" parent="1">
          <mxGeometry x="135" y="200" width="120" height="40" as="geometry" />
        </mxCell>
        <mxCell id="YS6Xps763IDJkA6cA54Z-5" value="" style="edgeStyle=orthogonalEdgeStyle;html=1;verticalAlign=bottom;endArrow=open;endSize=8;strokeColor=#ff0000;rounded=0;entryX=0.5;entryY=0;entryDx=0;entryDy=0;" edge="1" parent="1" source="YS6Xps763IDJkA6cA54Z-4" target="YS6Xps763IDJkA6cA54Z-6">
          <mxGeometry relative="1" as="geometry">
            <mxPoint x="195" y="310" as="targetPoint" />
          </mxGeometry>
        </mxCell>
        <mxCell id="YS6Xps763IDJkA6cA54Z-6" value="Sensor detects threat?" style="rhombus;whiteSpace=wrap;html=1;fontColor=#000000;fillColor=#ffffc0;strokeColor=#ff0000;" vertex="1" parent="1">
          <mxGeometry x="128.5" y="290" width="133" height="75" as="geometry" />
        </mxCell>
        <mxCell id="YS6Xps763IDJkA6cA54Z-7" value="no" style="edgeStyle=orthogonalEdgeStyle;html=1;align=left;verticalAlign=bottom;endArrow=open;endSize=8;strokeColor=#ff0000;rounded=0;entryX=1;entryY=0.5;entryDx=0;entryDy=0;" edge="1" parent="1" source="YS6Xps763IDJkA6cA54Z-6" target="YS6Xps763IDJkA6cA54Z-4">
          <mxGeometry x="-1" relative="1" as="geometry">
            <mxPoint x="350" y="390" as="targetPoint" />
            <Array as="points">
              <mxPoint x="290" y="330" />
              <mxPoint x="290" y="220" />
            </Array>
          </mxGeometry>
        </mxCell>
        <mxCell id="YS6Xps763IDJkA6cA54Z-8" value="Threat assigned to ACI" style="rhombus;whiteSpace=wrap;html=1;fontColor=#000000;fillColor=#ffffc0;strokeColor=#ff0000;" vertex="1" parent="1">
          <mxGeometry x="152.5" y="490" width="85" height="70" as="geometry" />
        </mxCell>
        <mxCell id="YS6Xps763IDJkA6cA54Z-9" value="no" style="edgeStyle=orthogonalEdgeStyle;html=1;align=left;verticalAlign=bottom;endArrow=open;endSize=8;strokeColor=#ff0000;rounded=0;entryX=1;entryY=0.5;entryDx=0;entryDy=0;" edge="1" parent="1" source="YS6Xps763IDJkA6cA54Z-8" target="YS6Xps763IDJkA6cA54Z-4">
          <mxGeometry x="-1" relative="1" as="geometry">
            <mxPoint x="340" y="520" as="targetPoint" />
            <Array as="points">
              <mxPoint x="300" y="525" />
              <mxPoint x="300" y="220" />
            </Array>
          </mxGeometry>
        </mxCell>
        <mxCell id="YS6Xps763IDJkA6cA54Z-10" value="Audit threat" style="rounded=1;whiteSpace=wrap;html=1;arcSize=40;fontColor=#000000;fillColor=#ffffc0;strokeColor=#ff0000;" vertex="1" parent="1">
          <mxGeometry x="135" y="410" width="120" height="40" as="geometry" />
        </mxCell>
        <mxCell id="YS6Xps763IDJkA6cA54Z-11" value="" style="edgeStyle=orthogonalEdgeStyle;html=1;verticalAlign=bottom;endArrow=open;endSize=8;strokeColor=#ff0000;rounded=0;entryX=0.5;entryY=0;entryDx=0;entryDy=0;" edge="1" parent="1" source="YS6Xps763IDJkA6cA54Z-10" target="YS6Xps763IDJkA6cA54Z-8">
          <mxGeometry relative="1" as="geometry">
            <mxPoint x="200" y="520" as="targetPoint" />
          </mxGeometry>
        </mxCell>
        <mxCell id="YS6Xps763IDJkA6cA54Z-12" value="yes" style="edgeStyle=orthogonalEdgeStyle;html=1;verticalAlign=bottom;endArrow=open;endSize=8;strokeColor=#ff0000;rounded=0;entryX=0.5;entryY=0;entryDx=0;entryDy=0;" edge="1" parent="1" target="YS6Xps763IDJkA6cA54Z-10">
          <mxGeometry relative="1" as="geometry">
            <mxPoint x="194.86" y="415" as="targetPoint" />
            <mxPoint x="194.86" y="365" as="sourcePoint" />
          </mxGeometry>
        </mxCell>
        <mxCell id="YS6Xps763IDJkA6cA54Z-13" value="yes" style="edgeStyle=orthogonalEdgeStyle;html=1;verticalAlign=bottom;endArrow=open;endSize=8;strokeColor=#ff0000;rounded=0;entryX=0.5;entryY=0;entryDx=0;entryDy=0;" edge="1" parent="1">
          <mxGeometry relative="1" as="geometry">
            <mxPoint x="194.82" y="605" as="targetPoint" />
            <mxPoint x="194.68" y="560" as="sourcePoint" />
          </mxGeometry>
        </mxCell>
        <mxCell id="YS6Xps763IDJkA6cA54Z-14" value="Launch ACI in SoC" style="rounded=1;whiteSpace=wrap;html=1;arcSize=40;fontColor=#000000;fillColor=#ffffc0;strokeColor=#ff0000;" vertex="1" parent="1">
          <mxGeometry x="142" y="610" width="120" height="40" as="geometry" />
        </mxCell>
        <mxCell id="YS6Xps763IDJkA6cA54Z-15" value="" style="edgeStyle=orthogonalEdgeStyle;html=1;verticalAlign=bottom;endArrow=open;endSize=8;strokeColor=#ff0000;rounded=0;entryX=1;entryY=0.5;entryDx=0;entryDy=0;" edge="1" parent="1" source="YS6Xps763IDJkA6cA54Z-14" target="YS6Xps763IDJkA6cA54Z-4">
          <mxGeometry relative="1" as="geometry">
            <mxPoint x="202" y="710" as="targetPoint" />
            <Array as="points">
              <mxPoint x="310" y="630" />
              <mxPoint x="310" y="220" />
            </Array>
          </mxGeometry>
        </mxCell>
      </root>
    </mxGraphModel>
  </diagram>
  <diagram id="seXnSIUuGSptwB1tSE9V" name="Workflow Threat Processing">
    <mxGraphModel dx="1434" dy="836" grid="1" gridSize="10" guides="1" tooltips="1" connect="1" arrows="1" fold="1" page="1" pageScale="1" pageWidth="850" pageHeight="1100" math="0" shadow="0">
      <root>
        <mxCell id="0" />
        <mxCell id="1" parent="0" />
        <mxCell id="IZcEk-yg3LG8s_2VoVYS-15" value="" style="ellipse;html=1;shape=startState;fillColor=#000000;strokeColor=#ff0000;" vertex="1" parent="1">
          <mxGeometry x="130" y="40" width="30" height="30" as="geometry" />
        </mxCell>
        <mxCell id="IZcEk-yg3LG8s_2VoVYS-16" value="" style="edgeStyle=orthogonalEdgeStyle;html=1;verticalAlign=bottom;endArrow=open;endSize=8;strokeColor=#ff0000;rounded=0;" edge="1" parent="1" source="IZcEk-yg3LG8s_2VoVYS-15">
          <mxGeometry relative="1" as="geometry">
            <mxPoint x="145" y="130" as="targetPoint" />
          </mxGeometry>
        </mxCell>
        <mxCell id="IZcEk-yg3LG8s_2VoVYS-17" value="CA logs into SoC" style="rounded=1;whiteSpace=wrap;html=1;arcSize=40;fontColor=#000000;fillColor=#ffffc0;strokeColor=#ff0000;" vertex="1" parent="1">
          <mxGeometry x="85" y="130" width="120" height="40" as="geometry" />
        </mxCell>
        <mxCell id="IZcEk-yg3LG8s_2VoVYS-18" value="" style="edgeStyle=orthogonalEdgeStyle;html=1;verticalAlign=bottom;endArrow=open;endSize=8;strokeColor=#ff0000;rounded=0;" edge="1" parent="1" source="IZcEk-yg3LG8s_2VoVYS-17">
          <mxGeometry relative="1" as="geometry">
            <mxPoint x="145" y="230" as="targetPoint" />
          </mxGeometry>
        </mxCell>
        <mxCell id="IZcEk-yg3LG8s_2VoVYS-19" value="ACI&#39;s active" style="rhombus;whiteSpace=wrap;html=1;fontColor=#000000;fillColor=#ffffc0;strokeColor=#ff0000;" vertex="1" parent="1">
          <mxGeometry x="95" y="230" width="100" height="70" as="geometry" />
        </mxCell>
        <mxCell id="IZcEk-yg3LG8s_2VoVYS-20" value="no" style="edgeStyle=orthogonalEdgeStyle;html=1;align=left;verticalAlign=bottom;endArrow=open;endSize=8;strokeColor=#ff0000;rounded=0;entryX=0;entryY=0.5;entryDx=0;entryDy=0;" edge="1" parent="1" source="IZcEk-yg3LG8s_2VoVYS-19" target="IZcEk-yg3LG8s_2VoVYS-22">
          <mxGeometry x="-1" relative="1" as="geometry">
            <mxPoint x="290" y="270" as="targetPoint" />
            <Array as="points">
              <mxPoint x="300" y="265" />
              <mxPoint x="300" y="265" />
            </Array>
          </mxGeometry>
        </mxCell>
        <mxCell id="IZcEk-yg3LG8s_2VoVYS-21" value="yes" style="edgeStyle=orthogonalEdgeStyle;html=1;align=left;verticalAlign=top;endArrow=open;endSize=8;strokeColor=#ff0000;rounded=0;" edge="1" parent="1" source="IZcEk-yg3LG8s_2VoVYS-19">
          <mxGeometry x="-1" relative="1" as="geometry">
            <mxPoint x="145" y="360" as="targetPoint" />
            <Array as="points">
              <mxPoint x="145" y="350" />
            </Array>
          </mxGeometry>
        </mxCell>
        <mxCell id="IZcEk-yg3LG8s_2VoVYS-22" value="Review threat audit" style="rounded=1;whiteSpace=wrap;html=1;arcSize=40;fontColor=#000000;fillColor=#ffffc0;strokeColor=#ff0000;" vertex="1" parent="1">
          <mxGeometry x="300" y="245" width="120" height="40" as="geometry" />
        </mxCell>
        <mxCell id="IZcEk-yg3LG8s_2VoVYS-23" value="" style="edgeStyle=orthogonalEdgeStyle;html=1;verticalAlign=bottom;endArrow=open;endSize=8;strokeColor=#ff0000;rounded=0;entryX=0.5;entryY=0;entryDx=0;entryDy=0;" edge="1" parent="1" source="IZcEk-yg3LG8s_2VoVYS-22" target="IZcEk-yg3LG8s_2VoVYS-24">
          <mxGeometry relative="1" as="geometry">
            <mxPoint x="360" y="350" as="targetPoint" />
          </mxGeometry>
        </mxCell>
        <mxCell id="IZcEk-yg3LG8s_2VoVYS-24" value="" style="ellipse;html=1;shape=endState;fillColor=#000000;strokeColor=#ff0000;" vertex="1" parent="1">
          <mxGeometry x="345" y="365" width="30" height="30" as="geometry" />
        </mxCell>
        <mxCell id="IZcEk-yg3LG8s_2VoVYS-25" value="Review forensics provided by ACI" style="rounded=1;whiteSpace=wrap;html=1;arcSize=40;fontColor=#000000;fillColor=#ffffc0;strokeColor=#ff0000;" vertex="1" parent="1">
          <mxGeometry x="85" y="360" width="120" height="40" as="geometry" />
        </mxCell>
        <mxCell id="IZcEk-yg3LG8s_2VoVYS-26" value="" style="edgeStyle=orthogonalEdgeStyle;html=1;verticalAlign=bottom;endArrow=open;endSize=8;strokeColor=#ff0000;rounded=0;entryX=0;entryY=0.5;entryDx=0;entryDy=0;exitX=1;exitY=0.5;exitDx=0;exitDy=0;" edge="1" parent="1" source="IZcEk-yg3LG8s_2VoVYS-25" target="IZcEk-yg3LG8s_2VoVYS-24">
          <mxGeometry relative="1" as="geometry">
            <mxPoint x="370" y="360" as="targetPoint" />
            <mxPoint x="370" y="295" as="sourcePoint" />
          </mxGeometry>
        </mxCell>
      </root>
    </mxGraphModel>
  </diagram>
  <diagram id="E6KB693JxWwoNPpdPWGR" name="Process View">
    <mxGraphModel dx="1428" dy="836" grid="1" gridSize="10" guides="1" tooltips="1" connect="1" arrows="1" fold="1" page="1" pageScale="1" pageWidth="850" pageHeight="1100" math="0" shadow="0">
      <root>
        <mxCell id="0" />
        <mxCell id="1" parent="0" />
        <mxCell id="jluBxMgDZdDaK_m-YzGm-1" value="Intercepting Proxy" style="shape=umlLifeline;perimeter=lifelinePerimeter;whiteSpace=wrap;html=1;container=1;dropTarget=0;collapsible=0;recursiveResize=0;outlineConnect=0;portConstraint=eastwest;newEdgeStyle={&quot;curved&quot;:0,&quot;rounded&quot;:0};" vertex="1" parent="1">
          <mxGeometry x="40" y="40" width="100" height="450" as="geometry" />
        </mxCell>
        <mxCell id="V0w6PxYmw_npt7crTtHP-3" value="" style="html=1;points=[[0,0,0,0,5],[0,1,0,0,-5],[1,0,0,0,5],[1,1,0,0,-5]];perimeter=orthogonalPerimeter;outlineConnect=0;targetShapes=umlLifeline;portConstraint=eastwest;newEdgeStyle={&quot;curved&quot;:0,&quot;rounded&quot;:0};" vertex="1" parent="jluBxMgDZdDaK_m-YzGm-1">
          <mxGeometry x="45" y="40" width="10" height="400" as="geometry" />
        </mxCell>
        <mxCell id="2iz-_eF2o7PVw8HHeakG-1" value="Traffic decoder" style="shape=umlLifeline;perimeter=lifelinePerimeter;whiteSpace=wrap;html=1;container=1;dropTarget=0;collapsible=0;recursiveResize=0;outlineConnect=0;portConstraint=eastwest;newEdgeStyle={&quot;curved&quot;:0,&quot;rounded&quot;:0};" vertex="1" parent="1">
          <mxGeometry x="180" y="40" width="100" height="450" as="geometry" />
        </mxCell>
        <mxCell id="V0w6PxYmw_npt7crTtHP-4" value="" style="html=1;points=[[0,0,0,0,5],[0,1,0,0,-5],[1,0,0,0,5],[1,1,0,0,-5]];perimeter=orthogonalPerimeter;outlineConnect=0;targetShapes=umlLifeline;portConstraint=eastwest;newEdgeStyle={&quot;curved&quot;:0,&quot;rounded&quot;:0};" vertex="1" parent="2iz-_eF2o7PVw8HHeakG-1">
          <mxGeometry x="45" y="40" width="10" height="400" as="geometry" />
        </mxCell>
        <mxCell id="V0w6PxYmw_npt7crTtHP-5" value="" style="html=1;points=[[0,0,0,0,5],[0,1,0,0,-5],[1,0,0,0,5],[1,1,0,0,-5]];perimeter=orthogonalPerimeter;outlineConnect=0;targetShapes=umlLifeline;portConstraint=eastwest;newEdgeStyle={&quot;curved&quot;:0,&quot;rounded&quot;:0};" vertex="1" parent="2iz-_eF2o7PVw8HHeakG-1">
          <mxGeometry x="45" y="100" width="10" height="40" as="geometry" />
        </mxCell>
        <mxCell id="V0w6PxYmw_npt7crTtHP-6" value="Detect network item" style="html=1;align=left;spacingLeft=2;endArrow=block;rounded=0;edgeStyle=orthogonalEdgeStyle;curved=0;rounded=0;" edge="1" target="V0w6PxYmw_npt7crTtHP-5" parent="2iz-_eF2o7PVw8HHeakG-1">
          <mxGeometry relative="1" as="geometry">
            <mxPoint x="60" y="80" as="sourcePoint" />
            <Array as="points">
              <mxPoint x="80" y="110" />
            </Array>
          </mxGeometry>
        </mxCell>
        <mxCell id="TNiVuJRsYwhVrkY5P_-n-1" value="Network item queue" style="shape=umlLifeline;perimeter=lifelinePerimeter;whiteSpace=wrap;html=1;container=1;dropTarget=0;collapsible=0;recursiveResize=0;outlineConnect=0;portConstraint=eastwest;newEdgeStyle={&quot;curved&quot;:0,&quot;rounded&quot;:0};" vertex="1" parent="1">
          <mxGeometry x="320" y="40" width="100" height="450" as="geometry" />
        </mxCell>
        <mxCell id="V0w6PxYmw_npt7crTtHP-11" value="" style="html=1;points=[[0,0,0,0,5],[0,1,0,0,-5],[1,0,0,0,5],[1,1,0,0,-5]];perimeter=orthogonalPerimeter;outlineConnect=0;targetShapes=umlLifeline;portConstraint=eastwest;newEdgeStyle={&quot;curved&quot;:0,&quot;rounded&quot;:0};" vertex="1" parent="TNiVuJRsYwhVrkY5P_-n-1">
          <mxGeometry x="45" y="40" width="10" height="400" as="geometry" />
        </mxCell>
        <mxCell id="zvaVxYk6od2GeN8GqTDW-1" value="Sensors" style="shape=umlLifeline;perimeter=lifelinePerimeter;whiteSpace=wrap;html=1;container=1;dropTarget=0;collapsible=0;recursiveResize=0;outlineConnect=0;portConstraint=eastwest;newEdgeStyle={&quot;curved&quot;:0,&quot;rounded&quot;:0};" vertex="1" parent="1">
          <mxGeometry x="460" y="40" width="100" height="450" as="geometry" />
        </mxCell>
        <mxCell id="kb_6owOfbUwwYWYOVUhT-1" value="Threat queue" style="shape=umlLifeline;perimeter=lifelinePerimeter;whiteSpace=wrap;html=1;container=1;dropTarget=0;collapsible=0;recursiveResize=0;outlineConnect=0;portConstraint=eastwest;newEdgeStyle={&quot;curved&quot;:0,&quot;rounded&quot;:0};" vertex="1" parent="1">
          <mxGeometry x="600" y="40" width="100" height="450" as="geometry" />
        </mxCell>
        <mxCell id="V0w6PxYmw_npt7crTtHP-13" value="" style="html=1;points=[[0,0,0,0,5],[0,1,0,0,-5],[1,0,0,0,5],[1,1,0,0,-5]];perimeter=orthogonalPerimeter;outlineConnect=0;targetShapes=umlLifeline;portConstraint=eastwest;newEdgeStyle={&quot;curved&quot;:0,&quot;rounded&quot;:0};" vertex="1" parent="kb_6owOfbUwwYWYOVUhT-1">
          <mxGeometry x="45" y="40" width="10" height="400" as="geometry" />
        </mxCell>
        <mxCell id="zx68lfiNbQOm5oyE7lhf-1" value="ACI" style="shape=umlLifeline;perimeter=lifelinePerimeter;whiteSpace=wrap;html=1;container=1;dropTarget=0;collapsible=0;recursiveResize=0;outlineConnect=0;portConstraint=eastwest;newEdgeStyle={&quot;curved&quot;:0,&quot;rounded&quot;:0};" vertex="1" parent="1">
          <mxGeometry x="740" y="40" width="100" height="450" as="geometry" />
        </mxCell>
        <mxCell id="V0w6PxYmw_npt7crTtHP-14" value="" style="html=1;points=[[0,0,0,0,5],[0,1,0,0,-5],[1,0,0,0,5],[1,1,0,0,-5]];perimeter=orthogonalPerimeter;outlineConnect=0;targetShapes=umlLifeline;portConstraint=eastwest;newEdgeStyle={&quot;curved&quot;:0,&quot;rounded&quot;:0};" vertex="1" parent="zx68lfiNbQOm5oyE7lhf-1">
          <mxGeometry x="45" y="40" width="10" height="400" as="geometry" />
        </mxCell>
        <mxCell id="zx68lfiNbQOm5oyE7lhf-2" value="IP package" style="html=1;verticalAlign=bottom;endArrow=block;curved=0;rounded=0;" edge="1" parent="1">
          <mxGeometry width="80" relative="1" as="geometry">
            <mxPoint x="100" y="100" as="sourcePoint" />
            <mxPoint x="225" y="100" as="targetPoint" />
          </mxGeometry>
        </mxCell>
        <mxCell id="V0w6PxYmw_npt7crTtHP-7" value="alt: item detected" style="shape=umlFrame;whiteSpace=wrap;html=1;pointerEvents=0;" vertex="1" parent="1">
          <mxGeometry x="160" y="140" width="830" height="300" as="geometry" />
        </mxCell>
        <mxCell id="V0w6PxYmw_npt7crTtHP-8" value="Enqueue network item" style="html=1;verticalAlign=bottom;endArrow=block;curved=0;rounded=0;" edge="1" parent="1" target="V0w6PxYmw_npt7crTtHP-11">
          <mxGeometry width="80" relative="1" as="geometry">
            <mxPoint x="240" y="180" as="sourcePoint" />
            <mxPoint x="365" y="180" as="targetPoint" />
          </mxGeometry>
        </mxCell>
        <mxCell id="V0w6PxYmw_npt7crTtHP-9" value="par" style="shape=umlFrame;whiteSpace=wrap;html=1;pointerEvents=0;" vertex="1" parent="1">
          <mxGeometry x="290" y="200" width="690" height="230" as="geometry" />
        </mxCell>
        <mxCell id="V0w6PxYmw_npt7crTtHP-10" value="Dequeue network item" style="html=1;verticalAlign=bottom;endArrow=block;curved=0;rounded=0;" edge="1" parent="1" target="V0w6PxYmw_npt7crTtHP-12">
          <mxGeometry width="80" relative="1" as="geometry">
            <mxPoint x="370" y="230" as="sourcePoint" />
            <mxPoint x="510" y="230" as="targetPoint" />
          </mxGeometry>
        </mxCell>
        <mxCell id="V0w6PxYmw_npt7crTtHP-12" value="" style="html=1;points=[[0,0,0,0,5],[0,1,0,0,-5],[1,0,0,0,5],[1,1,0,0,-5]];perimeter=orthogonalPerimeter;outlineConnect=0;targetShapes=umlLifeline;portConstraint=eastwest;newEdgeStyle={&quot;curved&quot;:0,&quot;rounded&quot;:0};" vertex="1" parent="1">
          <mxGeometry x="505" y="80" width="10" height="400" as="geometry" />
        </mxCell>
        <mxCell id="V0w6PxYmw_npt7crTtHP-16" value="" style="html=1;points=[[0,0,0,0,5],[0,1,0,0,-5],[1,0,0,0,5],[1,1,0,0,-5]];perimeter=orthogonalPerimeter;outlineConnect=0;targetShapes=umlLifeline;portConstraint=eastwest;newEdgeStyle={&quot;curved&quot;:0,&quot;rounded&quot;:0};" vertex="1" parent="1">
          <mxGeometry x="510" y="250" width="10" height="40" as="geometry" />
        </mxCell>
        <mxCell id="V0w6PxYmw_npt7crTtHP-17" value="Detect threat" style="html=1;align=left;spacingLeft=2;endArrow=block;rounded=0;edgeStyle=orthogonalEdgeStyle;curved=0;rounded=0;" edge="1" target="V0w6PxYmw_npt7crTtHP-16" parent="1">
          <mxGeometry relative="1" as="geometry">
            <mxPoint x="515" y="230" as="sourcePoint" />
            <Array as="points">
              <mxPoint x="545" y="260" />
            </Array>
          </mxGeometry>
        </mxCell>
        <mxCell id="V0w6PxYmw_npt7crTtHP-18" value="alt: threat detected" style="shape=umlFrame;whiteSpace=wrap;html=1;pointerEvents=0;" vertex="1" parent="1">
          <mxGeometry x="425" y="240" width="545" height="180" as="geometry" />
        </mxCell>
        <mxCell id="V0w6PxYmw_npt7crTtHP-19" value="Enqueue threat" style="html=1;verticalAlign=bottom;endArrow=block;curved=0;rounded=0;" edge="1" parent="1" target="V0w6PxYmw_npt7crTtHP-13">
          <mxGeometry width="80" relative="1" as="geometry">
            <mxPoint x="515" y="299.5" as="sourcePoint" />
            <mxPoint x="635" y="299.5" as="targetPoint" />
          </mxGeometry>
        </mxCell>
        <mxCell id="sMNSNMCD8xhRYG0Qf8qG-2" value="par" style="shape=umlFrame;whiteSpace=wrap;html=1;pointerEvents=0;" vertex="1" parent="1">
          <mxGeometry x="100" y="110" width="900" height="340" as="geometry" />
        </mxCell>
        <mxCell id="sMNSNMCD8xhRYG0Qf8qG-4" value="Dequeue threat" style="html=1;verticalAlign=bottom;endArrow=block;curved=0;rounded=0;" edge="1" parent="1" source="V0w6PxYmw_npt7crTtHP-13">
          <mxGeometry width="80" relative="1" as="geometry">
            <mxPoint x="660" y="322" as="sourcePoint" />
            <mxPoint x="785" y="321.5" as="targetPoint" />
          </mxGeometry>
        </mxCell>
        <mxCell id="sMNSNMCD8xhRYG0Qf8qG-5" value="SoC API" style="shape=umlLifeline;perimeter=lifelinePerimeter;whiteSpace=wrap;html=1;container=1;dropTarget=0;collapsible=0;recursiveResize=0;outlineConnect=0;portConstraint=eastwest;newEdgeStyle={&quot;curved&quot;:0,&quot;rounded&quot;:0};" vertex="1" parent="1">
          <mxGeometry x="880" y="40" width="100" height="450" as="geometry" />
        </mxCell>
        <mxCell id="sMNSNMCD8xhRYG0Qf8qG-6" value="" style="html=1;points=[[0,0,0,0,5],[0,1,0,0,-5],[1,0,0,0,5],[1,1,0,0,-5]];perimeter=orthogonalPerimeter;outlineConnect=0;targetShapes=umlLifeline;portConstraint=eastwest;newEdgeStyle={&quot;curved&quot;:0,&quot;rounded&quot;:0};" vertex="1" parent="sMNSNMCD8xhRYG0Qf8qG-5">
          <mxGeometry x="45" y="40" width="10" height="400" as="geometry" />
        </mxCell>
        <mxCell id="lDeIC7an_S8XtSsnEP98-1" value="alt: threat registered in ACI" style="shape=umlFrame;whiteSpace=wrap;html=1;pointerEvents=0;width=70;height=40;" vertex="1" parent="1">
          <mxGeometry x="710" y="330" width="250" height="80" as="geometry" />
        </mxCell>
        <mxCell id="lDeIC7an_S8XtSsnEP98-2" value="Launch ACI" style="html=1;verticalAlign=bottom;endArrow=block;curved=0;rounded=0;" edge="1" parent="1">
          <mxGeometry width="80" relative="1" as="geometry">
            <mxPoint x="800" y="380" as="sourcePoint" />
            <mxPoint x="925" y="380" as="targetPoint" />
          </mxGeometry>
        </mxCell>
      </root>
    </mxGraphModel>
  </diagram>
  <diagram id="-XimGNBH5Hpep91zttPN" name="Physical View">
    <mxGraphModel dx="1434" dy="836" grid="1" gridSize="10" guides="1" tooltips="1" connect="1" arrows="1" fold="1" page="1" pageScale="1" pageWidth="850" pageHeight="1100" math="0" shadow="0">
      <root>
        <mxCell id="0" />
        <mxCell id="1" parent="0" />
        <mxCell id="tvaKPbn11XsCOq2cvzbT-4" value="" style="shape=image;verticalLabelPosition=bottom;labelBackgroundColor=default;verticalAlign=top;aspect=fixed;imageAspect=0;image=data:image/png,iVBORw0KGgoAAAANSUhEUgAAAJAAAACQCAYAAADnRuK4AAAAAXNSR0IArs4c6QAAAARnQU1BAACxjwv8YQUAAAAJcEhZcwAADsMAAA7DAcdvqGQAAABmZVhJZklJKgAIAAAAAQBphwQAAQAAABoAAAAAAAAAAwAAkAcABAAAADAyMzABoAMAAQAAAAEAAAAFoAQAAQAAAEQAAAAAAAAAAgABAAIABAAAAFI5OAACAAcABAAAADAxMDAAAAAAIvvHMbnUA7gAABxXSURBVHhe7Z3fjyRndYbnDwi5iBKJzPTM7PYuUmTlggtukA3rjcEOIqxXXu/aiw3E2GuWNY4VRcIKykXuonARLlAEkYNQiDAEAglKouAAwivLQBQFyyYGrSIUIAqErCNkUGxZSHT0dPc7PvPOV9VfVX1dXT3skY6qp7tnqqf76ff8+H7UxkYDO3PmzGtuvvk3//DEiZOXb7nlTVff8IabJ7fc8qZ9/uY3v2Vy6tTpKzfd9MaP3n77uYfPnj1/4sz587/mf+uaLc8+9crjv/LN7WO//vWt8U3f2T7+wH9vveoT3xkd++CV0bFn3HkM//r2sT/g+V8Zjbb873U2wLnhhtd/++TJm54HGoFTBZAfT506ze2rp07d+tnb77jjt/zvX7MyBgT/Nhp/78ro2I/+fXR88u3R8cmVufPzd0fHJ/8xOv4ix/8cHZ/81+zn6f3c/uHs+OMfbL3qia/90vFf9L/fylCSEydunJw8+Rs/wwVQBKkKoJQD06lTp5+fKtQ1mDoZavHk9vieZ7fG/wQsOKBEj/cBS3TAkQOUfA7Wi89uH7/Vz9nIUB3gaQJQA4j2YCIs+rmvWbV9cWdn/PRo/LVvjcYTHDg4Sm2i6gggAVYFUIRIaoQTAv38WUaeI3hyARI4VfAIGofo9Onb5rdv/Sw5k7+Wa7axQUjhwwQc4Hh2NMZ/KogEUATJVQhoIkQpeAQQ/oO5kxv566k1PsTrr3/dBG8CkIPkADlIDpFAOnfuzv+9lni/bOQ2T4/GE/wbcwcgYOG2gHL1aatAESJU6H9Gx7/XKCcSPG0AqoPHFSjeJ3gE0vznK2fP3vEef30/D0Yl9ZXR+NMkxE8FcARP9BRAKYjaKlCjUHbbbWff2gagCE4VQA6Se4TntjNnp85tFOnnJbQBjhSHEAU8Uh5XIIfI86CuCgQ8MR/y15o0cp82ALkKpbxOgRwgBwk/7CChON8cjf9P0HDU7UXwVClQLkAOj6sQnlWVUXl1AUgKlANSyiM4fpSfOXvuq/Sm/LWvo914442/QHgQOP869whRGwVS+MoNYVUQ7Qtjo2Mf9Ne/z/hnIjxdAHJochQopUIRHPzsuTv3jlRt/j+sk1Hd/MtoPPnnuXNbEEV4VqVACmGCiI61/w9u17cFKIJTBZCD5OBUKZA78MjPn79rsm6J9t++cuc6mn8AI5fySH26KlBUoVIKRIfa/5d9RkOvLUCuQilvq0ARpKhAESbyozvvvHPT/6eh2VPb4w+gNl8NquPw5CgQgMTbfShQUYAY2wp+QIlyQHJwchXIVSiq0R13nP+w/19DMBLQJ0fj70dwdExBtEiBXIVcgUrnQFkAeQW2H6CbpuNXdVUQiS1tAHKT2eDpTGUcnFwFEiw5CrQvpHG75nX2bVRXgCOPOY/goWR/evvY1aSvSIEaA1SlQNz/ile84pf9+Rm2OQPq9JUUSA6OA9REgfbAmd/Gqdb8BfVpDHSiOk9WwMNjhDSSafIixrjo+FLM8Pvc5j6mZlCpMdLuCsSxDqAuCtQ5hKE6Gxsb1/nz2hhvCn8fmKrUxwFy9XHlSYHkEL31rrtf6HvUX13kJwI4OMA8sXX0KRqFjYYGgvG7lPxSIIdHtx2eXhTIq7Bl9VoY5yLMOTgRoBQ8DpID40f53W97R29qhJpMQZkBM3lie/wSP3N/W2jcmMYxSAUiTAke8h1/vLRRNZH0MqUjpUApgJoo0D4luvvtk7ve9o6ldrIfG+2+P4KDCjUeyc40IGKcrM8cKKcPtDeQSv7ijy3TmP66LAVyv3jx0h/7+bvYdGLXPNcBnM9vHf2kP8cNkHkdF+6/+Pi7Ll567sGHfnfCbe5TDrTIyIuqFEjqU0qBsjrR2GwS2cnLfn8fpjxJ8KRAylEgByaqkG4T0kr0jUiUvzwaTy5Tcm+PP0DS68/BIjDAIr/0wO/sO8rffek9n8yZ0sK85lQOtAwF4n/18x+weeiqe2M3+ZCX3W8hR3LF8Z/dpT4pJRI8HHHyore/455O5T4h6kuoztbRp1L5DV8IoHnXux/YBwrOfbo/5Tz3vQ+/72eLIKJCc3BKKVBUH5xz+fkPWF25zj9DZYZK+WPLMM6HUpRSoAhQBKnpl4GS+ws74x8yHMFtf5yqD6URKBfuv7gHzJ5fvPQcKvPggw9dmK5cOXPmNTi/C3T3XXjXt6RGdcUM4MZcyCHqokAewvzcjY3QRhe67h9ahvGmMlRRp0BRcVIguQLJUSEg4gPLCWmqsh7d2n2tPwYIgCFIAEcuaIAj5zwYXyBAxP0xGSo3W6JzMHyVVKCFFdgiEzx0mP2xPkz5UYQmBZKD4+4AAY+cKq2uZ/TM1vHXpsBBRd5574WrDoyOKE0uNCkDTHpLfr9MALmXVKDsGYkVtgk8jIWtegUF6jed6pqApo0CRYBQo3feeyF7dJ8PFnXgdyI8U3DmauO/swwDIB+JjyrUVoGUPKNAnRYcKvcBoNwSc9nGh+wQpcBxrwNIEP32PfdOS2o/p4z3gJB33333T3ABNL99tU7FlmHzSuynKYC6KJAgajyp3o1vvUbj/bFV2jT5PHvuqyUUSLkQR90GBq+CUBWAiS5wCGXxuX1ZDGFSopI5UOf8hw9KI/L+2BCMKqoKHPcqgCJIcpQIZ0CYLxGw6D7Bg/L0FaqqjEHWqhDWRYGUA2XNha6zoSpQNMIGA6dVIDVVICDRMaqNwfO4K1TfRmiZrYdfThVWpHzf2Nh49dABkhHSXHUcpBRAKQWKKuTK03eeU2WzMbGDFVgpBWL038/Z2AhhAmgob1ydKcF2cOoAqlMg91WrTjRaC1ra7M3ErgqE+vD3/ZyNbVaFzQBadRmfa4Rd+jqlFQjPbTr2YYy/ufKUUiCqLz9fW9tUGU8/yB8cqlFue0irAihXgWLV1XdHPmVMeQUW1KfUnGipT9bgaY7xbYuT6hcMtg7OmCoCHHUANVGgqQrNe0CrDOkx/ylZhc0h+rGfr5NJgXDKWn986EYYdnjaKpCOOEMVq4KIBFfKE7d4cRVqqkAlhi4OmMbC8HVdEYqSUnqTYDtATRUoNhFX1QtiNoBg8QS6iwIRwurG3lpZrMTWoZyvMxqPDlBbBdJQBkrUdFpIF6P/w/BF1ZTWtjkQ8GTNPGxjcZPNdanG3CjxaTgCRykFkmvk3c+5DCPBFTgxfHkzsakCFc99ojFbMa5M9ceHbiTTpXOgCFAYjX982YPOmkRWck70UtUHI1lkTEwQDaGMzTXPfXD6RBQEgqerAkWI6BX5ayhlTGoTNFUhrK0C+bmKm8IYedC6JNOxFyTV4T6pBF8MYOqqQBEgwtmyIKJ5KHhKKRDwFK+8UkYOATxsnjD0nhCAqBsNODqmkl3KfEFTQoEEERPLSoez2Dx0BfJmYq4C0XUu/TorTSoERENVIcIr86hjFxqFIQ/y58oo81GNEgq0D6SLl54rNfTB2NQcnGkF1lWBUB42Fc9aNFjKSKalQBxLvTmljJaDpnZEz2n4SbVKKVC8XeIbztQNzT5MKZBDlKtAfp6lGnIfqrFelkHnGkkxsMTReIBoOoJO0p0CqKkCxcn1XcMZixaBJ2d/oKhCdQpE5VVkykZTkwrJm35AyzDyM4eHMObPyzUSbaBwiHIBcgXCWSvWVrG1lFlhq8T+QPR9inedc2w2wHrT8wJo1bkQibFPrI+VVlvj7zo4uQC5AnGcLjZsqURs65JSn5QC5eRA08prmX2fRTbfiWxPhdp+s7oar0OKI3hSlVZbo7tcSoHaKhHjXnGXshIKtNSuc65FgFbRnVaPJypPSXhkUqIuCuQA5faJqLwETvS6KiyqUJUCdZ4sX8LIO5RMs+tYn1M9tKRH4HCsK9O7GhABQy5AixQoFyLfJ1GwpBTIw1iVArEUyM+zEiOW206tvahQanVq7orSLqZwlgPQIgXiyOYJ5ER+HhldZ99kM+ZAVQpUlwOR+3RaKFja6K8IIFRo2WW9hy28T+WTEi0CyBUogiSApERVK2FRn+kOrqZAnkA7QHUKBJR+npVbLOuBaFkDrSjPgR06Ouzx09ZQokUApcCpAkg7lMVz0J9JXWyF24KmqQL13jTMNSoKwTMr609f8ed0tZjzyHO6y8syKVEVQK5AdQDJNbORzZwEjgPkKhQBWpQDZW0StSojjAggjiUnnSnnieqzSnhkqEYVQA5SDkTTTaUefOgCZXvV5Z7a5EDc1+t4V1tTb0ibijfpdVSZlGffBlMrCFtVNt8E6gBAbRQI//17zk/HuhyenCrMIQrh60V/3YM0tsiLAHUNZcDjO5P1mTDnmpTI1adKgSJAOmpLu5g0O0SuQlUKFFWI3KfICtO+TFWZIGobymLCPETliUY7g8WGrjpNFeiRt9z8otTG4UkpkMOj2zGEEQ799Q7eCGXx2hhNB1v5/QP7RA9Qedzo6SxSnxREKA+hS9dJ9av1tFGgWe5z7Ef+GtfGogo1aTBS3awjPNh87dkBeBwiD2EARM9Hl3xKwZNSoEU50LJ2yu/F6AUJIDxnjIqhCL/UwTKHJ5Zh/N+CpiqEOTyELl36qYQCAc9aVF2LjAZjhKiuwchjfq2MtvnTqo1S3NWHoyuPwhdTNequmdpUgZi56K9pbc0v8ZQq7bmPi65E5Vn1HKOuJojqFAh4uL7GoisWNlEgcp+1qroWGQl0TKhTYFCux4ut8LM/Zx2NIQ9XoqhASpzjZS9TAFUpkMPD7UGOdXW1+f7OexDFAVfBE64bNsjNPNsaELn6qOoCClefVAirU6AIVOcdVYds8ysW7l1kjukXgBTvYw5zm+meQzb+n3gJBCkQoQtIml50t0qBULKqqwUdGtPF5aREc8XZ86b9onUyhTBVXcCSgqepAil8rXXJnmvKhyI0AmkIg6PLNLro6jarYdjmst+pKoxLT/n5Dq3peqkCKbdHdBiM6Rq6crOu3uzw5CpQDGN+nkNtKuv3+8HK7LCZNgWX6vi143MVKMKDkpGMr+oyC72bq8++/KemyXgYjPLarx2fgidHgbS8mXA43a7mrrtfSPXXDpVRde3vB+1Xomn/55BCxPRUh6cOojoFkvrswSO/6+4X/LyHxvh2GDzPU96SWAqeeUV25bCV8XSFuaJzBKgOnjoF4ghAtABYu68Fldq+pq8t9no1gAAYh0eP+yW/u05CG5rxYQOPvKsCMWpPSyDueSSfrlbpYXlTr+YDqqlyXU3GwzIOJuOKzg5PGwUSQAy6si5NsEQF0u5rPH5oUgHUJZbrdVMzUJ44mLrupb2SZvc2CoSTONOIjHsAOECCiNmR/nrWzmLeg+cMkEaIpiCtyUQyN5Jm5T06dlUgkuYUPA6Q3NeZrZ0xCzEmzv54yjQnCAXSMRXyhmxcS5685wmDp60CxYpL6+Hq4In7Xq/rF3DfnOip+jQY46Iyi6GMpLvJ76/SBA/gAFBXBSJs8feAIS6orFOguGUxq2fX5b3bM6jvuiqD39k3J/rM2eREtCEZneYnR+PvS3lSADVVIOU9dfDUAYTn7AAyGCMExSXOOXlPlZFER4C6bFfXhwkeOeCk4MlRIE0yY5jC4UmBVAcQt1dxMZhWRhIcALratSkIgAplgmiISsRo+OXReIJ3VSBceY/+b4fIvQ4gbRY6+NLed+golcABTVSiLqq2DBM8UX3aKhBOr6cKniqIqgACHB0HHcpIfGPeU7KHown3vHF6Q0tsoFnCHhvtvp8kN6pPVwXSnGYt607B4xBVAeT7XQ92qOOGG17/bakPoYs18v6cLgZE/o1ctRLR6xE4JRSIpDlODJuOFSbUx+GpAygqkHxwy8M1r3kvcV5S2cjfjSq0Soi4XtcXAGV7/NKXEwC1USC23HVVpXMf/9+U+tQB5Ao0355vOF1qrT5dxp5AKUOJ/JvYN0TMPf7SaDwBHDmwpCBKweMKhD89Gn/NzyNLbayVC5ArEH0hBmJLphidzDfY9G/QMmyVSgQ8KI/AAZoUQE0UqA4ejC+plCcFTx1AKQXSNjTLihTZduByBz2WicTx+I3kjVt2Yi14pD6Cp20ORNiid8Tlu/1cbnT2SyiQVGi6v+MqqzLojfAse2fWlDFG5m/qspSI60kAjryEAuFNrlOhy1c1ASilQHGL4pU1GGkYxg3GV9Xci0qkN5er85R8PRrfqoKnrQI1Xb9OX62oAs1DWcn3KstIlLlqoQBa9Wi5J9Z4qWEPwstjo/FEoasKoqYK1PYyA3w5mgC0SIEAqPfe0P7rpg5j+ikh1eUdiLokiiwTfmx09IVF8DRVoLbwYOSZTQCqU6AIUW8i4Fcr7DNxXmQokUOEt4EIeABHHgFKQZSrQCV2ziChBpQcgHIUCO8loQYWXakQX0XivMhSSsSb2uQbNgtbM+VJAeTwpBQoBVCpKwOS95VWIHzpixMBRrkPYazNN7sv09Wao+cM7pIwR3BSAKUgcgXyEFYKHhnVZlShKoAWKZBvTby0NgiwxMT5xImTl/05Q7N41Wa92XVlK30eJcw6pgByeFIKFAHqkvNUmcL1IoDqFMgBYuJa3fvTyQAGgHTNeH98qMY31ZUo1cbnQ/670ZEpOA6PA5SCyBVoGsK2xy8tc8uVqEJVADVVICAqrkLkPoIHX/Z4V2kDGFeiuGKB8PIPoyOTf5wDVEKBAKhJk7CNkdeVVCABVHw1B8CcOHHjtGwnhG1sbPTbeCpgSHMKIubzfG50ZAJAUh+HxwFKQeQK1NdVcZTrVQHUVIEEUdHqWvBwXOcVoyz51ZvMG/mxzZ0XpDxSnxIK1Oc2cxQGdQA1UaC5+ky33yvWXIzqgxePjz0bJTDzYT6zffQnAsbVx+FxgFIQSYH6Uh4Zn4erUAkFAqIiVTYzDQFo3dVHRl7CenVBE3Of2fFIKwUiYe5TeaIpmU4B1EaBBFDn5iKlouBBfXL6KEM2ejwoD9B8Znf805IK1LfyRENVASYFUFsF2lOhLrkQwAie669/3dqU7imbNgh3xj90xYn5T9MqbBq6tscv8bf9fH0bm0ulAGqrQAKoU1+I8AU4QLRupXu0Rzd33kiPRw4oMYRFeJooEMMdfq5VGQWCVKikAuGtpnuQnAkeFKj0Kou+7JGt7d8DEsHDbalQFUSLFAjPnUnYlxFqUgB1USBB1KoiI3wB0Ayik5fXsfr6+ObOF/nwqwBKwZOjQCThfq5Vm6oxwVNCgfb84qXnGqsQA6cCaIij7nVGTvK5rd3vRnAEj4YrBFIKoioFIt/5/NbR5t/GnozG6DIUaHpVoaYj9aiOQliTqRCrto9ujt4KJHSX49FBqoKnToFYbkw4H9zCvLnxOTlAJRRIEPn5Kg05VAK9TtUX6iBo5A5OVCCBEyuxVB+IcS02eOC9UEN1qD0xB6iUAjVSISXQesP88aEZDTxC1t+MjkzwCE8KopQCuQoJHiqtR0Y7fxQbqprSwjq4oakRTUUgWYYCZQ+yRoCGPu/nU5u799IUdHhSCiQXOBEih0fH2CCME+q0GmU6rXdJS4naGB8ywJRSoAgQVxny8yWNb9XQE2iGJKiyAELwOECuQAphrj4RHt3++9GRZ1JDE+QZ2kgibuGHD2F/ZqauuPrkApRSoBjCmoSx64YMEI3BT8/h+IzBk4JoUQiLORDHnDKdD8oh0ibqqwxrbMZQOgeKIFHS+zkPGCGMWD80gNiD8K9Hu38OJAAEPBGgFDwpBYrq4zkQjUc/b5XRvCOZBiTtTvLybvu3fnYV1SsqGENYVwVyFSKMZY2PvTyMMYwciHBCrgMwwJMCaJECxRAWVQhwGCdrOyBK01VXYoy77Ws3tcZNuA7mAHVVoBRAWeNjaiSiRP5Y34bq/FUApwqgFDwpiFyByKWaDEvMu/K3+32AJBWKW/KxxGi621ih2QwoQNXIAAABSSkF8hwIzxraiJXYKqQYe3Rr97WoTgqeFEBNFQiA2naWUZV5eD8wEk9+hCJFgPam09519wt8yG1VCXjqPkANqpZSIM+BUKDsagxwVhXGUAXAkTs8KYBS8KQgkvKQjPt5mxhfMnKd1FghP/vuYg4SE7aaVG6AM81BamYKEl5KdqIdoGQeRKNs36sIxjSOPlWIoQgB0xSgRQqEq0Rvm++kDCWaDvncfu7h1KwF7tcuYwJIU1D5oPlQgQnlokzmvZYDGFDwIebkH/SBSiqQw3MgD6Ky+dPN0aK1QJsk1X5nSdMA6MdHO/vAaQJQCh6HqG3IyrBXa8Vu1RWJCFtaYpQacuBD5egfmn6uC10y/rarTy5AOfAIoL0wxgcHQB/a3L7TX0wfRhghXAFOFTy5ALkCRYAIWXSt/fwlbTYF+OTleaf6al14Ql34FmvoIQLkqoA65TTwtOrEwWwCUA5EAmgqOrypAPThza2FdJc0wP3E1u5zLK35xGhnggsgbrcByBVoD6Kt3e/6+ZdphP24e1uVIkUjr+F5hCB5k2S71HwgD2NRAR2g6WsDHADCl72SEgPYT20deeYvN3cmeFSeFDhNAIoKBDizifO77/fX0IfNmoyzyz7MG43PkytlNeFaGMk80JRSIIHj8ESAph33j2xtf0MA/dnm9o/8hZUw8iw6vKjNX2zuTPAIz6Ob5RUIdRvCZHd1qm244wohbEHemW0xcXaASiiQuwCahlXBIycf8RfY1sir+HuAKcWJygM4UYH42cFpApDgYRNwfy2rtPllIPYuvieQuI8cKCfEpYyw54sKHaAmCuTwLIQoBZCUiCaev+BFRjeX3/vYr+7+yUdNaTjyM7d1jAoEJF0ViFynzevuy1AjjZlp2MP8CvkTwAEHOYZyIN3mfjray9ofKAWPQyQFmpbyDk+ECAcGlMTDAT9TQRGayKP0fMARPDpGjwrEUSoENG0VCKc8J1TG1zhEAwBAcYhSwx/kTexxFD32kbynlAKoiQLVQdQYoP0w7ezzR4J/JMDC7SqAovIsUqCUOzwCCNWh+egf1NBNlzkXPDpGkIDIO9ne0fampAPURoE4ppSnFUAOTwqg6AIopT5RgaL6tMmByHXqOujrYLOhkNNXIjyuRA4QsFQBtAwFSoG0D6BYhTk4H7KjAwQwDlGOAsUKjNtRfaog2lOd7aM/IWyuQ7jKtfl0kOnlzuvgcZByAGqrQA5RCqDp8BZTJRweAZRSoKg+Dk9TBaqCKOWEq5IV4hCNYY5FEC1TgRyelPrI3/vw+2bLm0iQHR4HqLQC6ViV/3gVNvTqqqRpvMxzIfdcgJoqUEp9HCIp0DQKUBU4PA5QCp5FCuQARa8KY7ESI1zRDGwyxfQwGR3r6SS0FSpQXQjbt3eQ50EOTxsFcniaKBB+2PKctqYhEYGzbAVaBI8A2je9RwOqdRA5PG0VKOZAgBKVCMV5dGun86UADqOpebhMBcqB6ID6yEhQcwAqqUCCR4rjr+maHbRpNzqx93UVQG0UKELkOdDeEIab50IRoBjCuiqQAJqGrc2dLy57js5hNT4vkm11p6sAaqtAAsfhqZ3UpsllEaKUd1EgRuQZ+uhj6sjPi5GPMKiaAqiJArn6ePjKWhtPuTwb1+qmQFGFgIZ+U9dJ7Nes3ki4GdknR+mqQA4QXedG0080QJpSokUKNJ1luLX7HCHqGjSrM8GEOgFMDkCuQvx+60lwrDBAkRhzotQHqKQCbW1/A1gYuQeYumUn16x/QzmmU2bn87AJRYDhAM3heXy6fOjBhy7kTKf9fzlMY7k+gdl6AAAAAElFTkSuQmCC;" parent="1" vertex="1">
          <mxGeometry x="90" y="130" width="80" height="80" as="geometry" />
        </mxCell>
        <mxCell id="tvaKPbn11XsCOq2cvzbT-5" value="&#xa;NEOX NETWORKS PacketRaven&#xa;&#xa;" style="text;html=1;align=center;verticalAlign=middle;whiteSpace=wrap;rounded=0;" parent="1" vertex="1">
          <mxGeometry x="60" y="230" width="150" height="30" as="geometry" />
        </mxCell>
        <mxCell id="tvaKPbn11XsCOq2cvzbT-6" value="Customer Gateway" style="rounded=1;whiteSpace=wrap;html=1;" parent="1" vertex="1">
          <mxGeometry x="70" y="30" width="120" height="60" as="geometry" />
        </mxCell>
        <mxCell id="tvaKPbn11XsCOq2cvzbT-7" value="" style="image;aspect=fixed;perimeter=ellipsePerimeter;html=1;align=center;shadow=0;dashed=0;spacingTop=3;image=img/lib/active_directory/generic_server.svg;" parent="1" vertex="1">
          <mxGeometry x="140.8" y="360" width="39.2" height="70" as="geometry" />
        </mxCell>
        <mxCell id="tvaKPbn11XsCOq2cvzbT-8" value="" style="aspect=fixed;sketch=0;html=1;dashed=0;whitespace=wrap;verticalLabelPosition=bottom;verticalAlign=top;fillColor=#2875E2;strokeColor=#ffffff;points=[[0.005,0.63,0],[0.1,0.2,0],[0.9,0.2,0],[0.5,0,0],[0.995,0.63,0],[0.72,0.99,0],[0.5,1,0],[0.28,0.99,0]];shape=mxgraph.kubernetes.icon2;prIcon=job" parent="1" vertex="1">
          <mxGeometry x="60" y="310" width="80" height="76.8" as="geometry" />
        </mxCell>
        <mxCell id="tvaKPbn11XsCOq2cvzbT-9" value="Server provided by customer to run Kubernetes cluster to horizontally scale the network decoders, sensors and ACL&#39;s" style="text;html=1;align=center;verticalAlign=middle;whiteSpace=wrap;rounded=0;" parent="1" vertex="1">
          <mxGeometry x="190" y="310.2" width="190" height="76.6" as="geometry" />
        </mxCell>
        <mxCell id="tvaKPbn11XsCOq2cvzbT-10" value="" style="image;aspect=fixed;perimeter=ellipsePerimeter;html=1;align=center;shadow=0;dashed=0;spacingTop=3;image=img/lib/active_directory/generic_server.svg;" parent="1" vertex="1">
          <mxGeometry x="529.21" y="386.6" width="39.2" height="70" as="geometry" />
        </mxCell>
        <mxCell id="tvaKPbn11XsCOq2cvzbT-11" value="Single server provided by customers to run Rabbit MQ to enqueue network packages and threat items" style="text;html=1;align=center;verticalAlign=middle;whiteSpace=wrap;rounded=0;" parent="1" vertex="1">
          <mxGeometry x="579.21" y="310" width="190" height="76.6" as="geometry" />
        </mxCell>
        <mxCell id="tvaKPbn11XsCOq2cvzbT-12" value="" style="shape=image;verticalLabelPosition=bottom;labelBackgroundColor=default;verticalAlign=top;aspect=fixed;imageAspect=0;image=data:image/png,iVBORw0KGgoAAAANSUhEUgAAAT4AAAFfCAYAAADXkKDPAAAAAXNSR0IArs4c6QAAAARnQU1BAACxjwv8YQUAAAAJcEhZcwAADsMAAA7DAcdvqGQAAABmZVhJZklJKgAIAAAAAQBphwQAAQAAABoAAAAAAAAAAwAAkAcABAAAADAyMzABoAMAAQAAAAEAAAAFoAQAAQAAAEQAAAAAAAAAAgABAAIABAAAAFI5OAACAAcABAAAADAxMDAAAAAAIvvHMbnUA7gAACe2SURBVHhe7Z13uNRU/ocPKiDqrrrsohRRugV21VURddVF7L2tawG5ydwCXLhw6dWLgNKbFEFEEGyIIqgIKk0QGzZ0FxALAgrSpE3OSTKT7+/JXPS3ngwycyc5M3Pv532e9y+dm0zm5GUySU4YAwAAAIC/0K4ttWn6ffWNznUvFd3r3mR0r3s371rnfleja927RLfTb7S6nnYhLehXj3ZuriW/HgAAMhZaPbO2/e6zLcw53e4La+xhQ2PPCo19wnW2k+vM5jqjI2hxnW3jGlsZDrGZPIf1jSyZcLv1wdMXyMsCAIC0Ip7Ov9kc2Wo419hCrrP1XGc8TtTK6j4eYmuFxuaZj98zwJ6Rf7m8fAAAUML+khZnmv3PGcgLT/yAa+ynQ9/W5Gj5rRvUH3iXU5eL/mcXy+sEAACBIJ5ofUM4xKYZOgvHCZNKHUNn2wydjbLnlVwprycAAKSMPafH1TzEXuA62+FGJ06I0qW7LltEl7+MteZ2ay6vNwAAJA09clljXlxrKtfZpgwLnqx7qP2V6NNoqPweAAAgIWjGbQ14LhvAdbY/TmQy2xz2vShg+fRql9ry+wIAgLhYj/+rwNDZKq4x0xOVbFFjB7nOXjefKbpbfn8AAPAr9sjrLjPyqs0XOtvjCUmWamjsB965xhRzxI1N5fcLAKjAWB/OOTecV+VJrrHdXGdROR5Zrvu7ZIRrbLuRX20o/fDFafL7BwBUIMSS8Q2M/mcWGzr7Jk4wyqPuJTCr+ahWufK2AABUAPiIljmGzpZxPfZbWCafrfVbR2hsTzjEXufj7rpK3i4AgHKI/VzxJSK3yjxDZwcqWPBko7E7TvJPmGK+M+mv8nYCAJQDrBWTzzM0Nu7Q7WVyBCq63xtFJ/cU785oIG83AECWYvQ7q4uhs4/K4YkL3zR0JgyNvc0fuSRH3n4AgCxCDLroJp7D3uU4rE3UqPv7H9crvW5Nzzlf3p4AgAyGz9T+yUNsNtez+ALkNOtey+j+NGC9OvgiefsCADII8Xj3Rlb+MaN46eUpOKxNXXcbfmF1rVlEo3H7GwAZB29fJ5c/wD7M6tvMMlWN7ef/ZktEcZNb5O0OAEgDomfj63npiQvvDgt919DYXGPM9ZfKnwMAQAH21HuvEBqbwnW2S945YaC61/9tMnPYCPOV/s3kzwUAEBB82JUlhs42KpruHcbXFHnHrrHGXJMnfz4AAJ+gNS/VDBccl8tDx/wXwcsY3UuETJ5X5d1wh+q3yp8ZACAFIiXNbjB0Nh+Xp2Sw7vx/Gptsj772H/LnBwBIAnPK/c1Eyd8e5xrbjMtTskCN2Vxj681hVwyXP0sAwBEwXupRx+hyavfYw7VxWJuNmjyv8lqr+NS28mcLAIiD9QALcZ19wHVmx9mhYHYpuM4WR0pOuUn+nAEA7uUpM/SreMc/PRvW2b44OxDMZkNsq+jTeKI1PQ/3/wLgQoMur8e71pzM3WdDaCzi2WlgedHkGvuOd2/QTx4DAFQY6NF29cUNrAvXYycu5J0Ell8jRoh9bF3GMP0VqFhY09o8aOhsKddZOM6OASuGe43cSi/bzxVj+ntQvrGGXHw+LzzxWUNjO+LsCLDi6Rga+87oWms8PXrxGfJ4ASCrofVLmxgam8Bx4gIe3l1G74adad0yBBBkN8bCkjpi2D86H5o9BTMgwyPJucbetibdg9//QHZij77yuoMhtvzQtzxEDyaq++zfnUZ+tResCdfi8heQHdgLH7mU5x39fGzySgQPll33FsWdRm7l8eaHc8+RxxkAGQG9NeYs3umkh7nOtsQZxBCm4pei/znt6a2xdeVxB0DasErObc91tgrTvsOAdI8c9om2bLE59J//kscfAErh4275J8+ttJJrsevxcFgLg1WLzf68nxdUfsZ6vuuF8ngEIFDsOd2v4DqbKnT2s2dwQqhC9/5fnQ013378bHl8AuArNDjnNLP4lL5cYxswPx7MAN17u1da/c8ukMcqAL7Ai2q34fezD40QM+IMQAjTpROb0edetpQPvPSf8rgFoEyIka2uNXLYAvyGBzPeEDPCGptizCjA4y9B2bCe63ieCLFJRunlKYgezBYjhs7WmzlVBtHKKbj8BSSOGHRBl3BeZTzNDGavGuO88KRV5pCL7pPHNwC/4WBu5daGzj7HiQtYjowaIbb8QL+mV8rjHVRw7PEtrzHz2IxD1+PJAwfC8uCPVns2zpr+7+by+AcVEKPk/IlcY5vwcB9YAXTvLFovhl7ZTd4PQAWAXh95uhWq1pmHKn1v4LAWVjANjVkidNSnkfxjH5D3DVBOMfv+5R6ew5bhvlpY4S29JvU5e9R5mP6+vGJNuLM573nGTK6z7Z4BAGFFVWNRQ2ffiJJzx4op9zSQ9xuQpdCEO04XRX8ayfXYcy7wOx6E8bUMnW22Cmu0l/chkEXQzIfqipasEJenQJiUppHDlpkvdMPvf9mGmKbfGNYrLeZ6bBZk+YOFEB7Z3eGi6tON6TmXyPsXyDCs4sZ/C3c8eaZR+jsebjODMDVt9/DXKK45iga3rC3vbyDN0Jq5Z5rd6/Vz/5WK8+FBCFN3vTWyZQGtmYP7fzMBMeaGDrFp33Um4nxYEEL/dH86Wmg+0eYueT8EirBH/v0yXlBloVE6CzIOayFUo2NobFu48KRpZv8L8fQ3VVgrpzfnGnsKJy4gTLs7eX6VR+g/ixrK+ynwCXqppL7Zp0lPd66xOB8AhDA9upeKvSOGXp4v77MgRcyHz39AaLHf8Q7isBbCjNMROtsjctliu29LXP6SKnyGfhUPVXqda7EJQRE8CDNbh2tsX1g7arq1aNhF8v4MjoC1YMj5hs4e4xrbFmfjQggz3695p+q9aeFw3P+bCKJb/WKhsY8PPTpP3pgQwmxRYwbX2FJecl4beT8HhzD6Nb1DdDjhY0NnHIe1EJYb3ctfwrzjyYvtCbe3kPf7Cot48v5rDJ09zUuDJ280CGH50P0ys+NgDhtrvdT3YrkDFQa+eEQ9K6fyWHcuMMyeAmGF0eYaW2sVn9JZbkK5R/Rq2J4XHLf20DMA5A0DISzParGzvwd5x5NXmb3q3yn3odwR7tfoJkNj7+IbHoTwkBEeYrPtMdeVv8df2hNuudwsYE9yjf0U541DCCu27hehb0QhGy3m9Ggi9yMr4QP+WsJ1ttmd2jrOG4YQwpiGO8NSXpW1fOB5utyRrMHqzFobGvsMh7UQwiR1n43ztq0df43clYyFZvRrYHQ4YYIonS5KfkMQQpiYIbbV7N2oh9yYjONAUaPL+X3sLZythRD6oHvt335xN3txf8nfz5R7kxGIghPaGRrbYeCuCwihj7pNMUJsKx90fku5O2nF7N24F9fYAXmFIYTQRzdZI68Myf1JC7zvmY8KDdO/QwgD123Mj2JI8yK5Q0oJtz9x2qHf8xA9CKEaQ8wwBp3fXe6REnjPekM8KwQhhAqMzfg8/IqOcpcCxeh7Vg+j9PDWs0IQQqhAx9DZFj70Hw/IfQoEXlSjjaGzHTi8hRCmWXeyg8188N8vkzvlK3bvJpdyHdPBQwgzR0Nnn9Hj9zWSe+ULtGZWTV54kntxsmfBEEKYRk3eu+FUuVm+EO508iPu2ZQ4C4UQwrRq6GxPuLi2v8/2NZ/rfBfX2Q/ywiCEMFN0Z3O3lk+9UO5XmeFa7P5bz4IghDCjzK38rNyvMiGKauRj0gEIYVaosX326KtTm87KmHx3bUNjmzx/HEIIM1Et9jjLJXLLkoIPaPoQ15jw/HEIIcxQDZ3t5qOu0eSeJYR4Y2wTQ2fv4UJlCGGW6Rg57CW5aQlhdajWmessHOePQghhpnsg0uUPN8td+11oy+raXGdvxvljEEKYFQqdzZXb9rvY42++gutsn/yHIIQwi9wrt+13MfKqTojzRyCEMKsUg1sUyn07LDy38vfyH4AQwqyzd8M35b7FxRhxVQtDwwXLyg1VIl54EoleDUgMPJ/EkOYkhl1O5vArSTxyCYnBF5EY0IxEzzOIF57ofX02mHsM8c41SPRuROLhv5MYcnHsPQrpPfLudYl3+ANxvZL3b0CYjBr7ynqu+Dy5cx7MYZc/ZGixB/p6/wj0yUrE86sS734aiWltyF4xhSIbVlB065cU/WkjRXd+R87u78nZs4WcPVvJ2b2ZnF3fU3TntxTd/lXs/4tsWE72iqlkzswl3rMe8fxjS+PpWVaadCPX7jgSQy8na24vst9/jiLffUTRH9eVvsddm0rfV9z3uIGiW7+gyPrlZC+bTOa0NsR71S99j4ghTEL3eUDW7I65cuc8iLZsEa7dC9DCE0lMuI0in84nh+8nP3DMMEW+XEzmlPuId6ruXaZKQ0fFvs1Z8wfGAuY4jry6ZcMSFPnyTTIn3E686M/e5UIY36jVhj0md+43iPn93IuWP4vzYuiHPeuRtWgkOQf3yLu1LzjiINnLJpFwvx3Jy1ZhXhUyp7WOfVujaFRevdRxHHIO7iZ7+RQSPc7wLh/C+L5On79UR+7dr9ivDLiW6wwnNoKwcw2yVz1FjmnIu7OvOJYge+WTxItretchSENHkTW9LUV3b5FXyXccW1Dkg+dw2AsTU2Nrrc/mH/53Pmte/zx3dgPPC2HKWq8N8e+w7wg4tknWiz1Lf2eLsy5BKIZfEfv9UdV7jEYjZD6le9YDQln3dz779SFXy737FT6iVQnXWUR+IUzRLjXJ2b9T3ncDxT2JwLuc4l2XICyoRvabY4icAA5vD4MbWPc3v6w9ww1VGjVD7PBPYwtrDBcuB6A5M0/ZN6Ffcb8Rjb7Osy6B2LkGRXd8La9B4LjfMMWQFt71gVDSyGE95N79ipHDnpFfAFM0dHTpGVzV4SOKfQvzrE8AikcvJUfht71fiB7YReYTrT3rA6GsEWJj5N7FoM8X1uEae01+AUzRrrUouukTeZ9VQmTdMu/6BKA1M19etBLcE0XWC8We9YFQ1gix2XLzYtC6N84wNPa2/AKYmu41bdFtG+R9VgnucnleZc86+a316iB50WqIRsl+5SHP+kAoa+hsnty8GPTFkgaGzlbIL4CpaY66JnZHQjqI7txEvMupnnXyW3vpJHnRyrAXDov9nCCvE4SSb8jNi0Hr3m58aMZl+QUwBc1Jd5Kzd5u8vyrBvR1M9G7sWSe/jax+Wl60Muw3hiu9bAdmqYd7DgfCF4zmlHvJ2b9D3l+V4Pz8A4mH/uZZJ79F+GDGi/Cp1XriAXIO7JL3VyU4e3+MzfQir5PfRj58QV60MhA+mJAIn1qtpzRywsHcm3sk3ENsMbi5Z538NvLxPHnRykD4YEIifGq1ZuSSE/5Z3l+V4OzbTuLRyzzr5LcIH8x4ET61InzBgvDBhET41IrwBQvCBxMS4VMrwhcsCB9MSIRPrQhfsCB8MCERPrUifMGC8MGERPjUivAFC8IHExLhUyvCFywIH0xIhE+tCF+wIHwwIRE+tSJ8wYLwwYRE+NSK8AULwgcTEuFTK8IXLAgfTEiET60IX7AgfDAhET61InzBgvDBhET41IrwBQvCBxMS4VMrwhcsCB9MSIRPrQhfsCB8MCERPrUifMGC8MGERPjUivAFC8IHExLhUyvCFywIH0xIhE+tCF+wIHwwIRE+tSJ8wYLwwYRE+NSK8AULwgcTEuFTK8IXLAgfTEiET60IX7AgfDAhET61InzBgvDBhET41IrwBQvCBxMS4VMrwhcsCB9MSIRPrQhfsCB8MCERPrUifMGC8MGERPjUivAFC8IHExLhUyvCFywIH0xIhE+tCF+wIHwwIRE+tVaI8H3yirxoZdiLRxPPq+JZJwh/I8Kn1goRvi/flBetDPutccTzj/WsE4S/EeFTa1rDt38HiZFXedbJb6PrlsmLVob99njiBQgfPIIIn1rTGr4Du8gcd5Nnnfw2uvkzedHKsJdMIF5QzbNOEP5GhE+taQ1f+Gcyn7jfs06+WlCNnJ3fyYtWhr1iKvH2f/CuF4T/K8Kn1rSGzwyT9WJPzzr5qeh3Njl7t8mLVkbkvWeId6ruWS8IfyPCp9a0hi8aIfudaYGe9TSn/Juc8F550cqIrF1IvFsdz3pB+BsRPrWmM3wukY3vEu97pme9fDH3GLKXTiInYsuLVUZ0y+ckBjTzrhuE/yvCp9Z0h8+xBVkv9yOeX9WzbikZqkRi5NUU3faVvEi12CaZU+4lrlfyriOEv4jwqTXd4XOJ7t7sfxz6NCb7s9eIohF5ccqJrFtGvOOfvOsI4S8ifGrNhPC5RHd9T9bcXsQ71/CsY1LmViZzZCuKbFhBjm3Ji0kL7qG2vXRi6u8Nll8RPrVmSvgcx4kFIvrzVrJXP03m5H+RGPh3Eu7vfz3rEe9et/QkwS92P514r/qx/y5KziUx9kayFg6l6KZPyDGN2N/LJGLvbfvG2Dqaw1uS6HdWbP1/876Ka/7WLjVKYxnzL8Q7/Yl4p5OJF55IvPCPxNufQLzd8aXXCbp3h7gnidz7gkNHeT5nmOEifGrNlPB5cEMowrFvgm7Mohvfpej65aVuWEHRr9+LnThwD5MdcdA9RSz/hYzFiUQouvdHim5ZS9GNq2LvKbJuKUW+WESRtW/8v5/Mo8jHL5W6Zi5F3p9NkdVPU+SdaWQvfzx2V4j95hiy3xhG9mtDyJ5fQvbL/cia042s54rImlVA1owQWU8+SObU+8icdBeZj91K5tgbyRzViszhV5J45FISgy8q/cej/zkk+jQu/Yema+3Sw/O8yp4xAwMQ4VNrxoYPpIwTscixODn8QOwzdvbvjF3T6OzZGruo2/lpI0V/XEfRrV9SdPOnFP3uI4p+8z5Fv1oVu83PDbH90YuxuJozQsR71veMH+iTCJ9aET7we/zyE0Ts2/feH8l+/xkSj7TAN0G/RfjUivCBZInu3Ubm9BzMM+inCJ9aET5QFqK7NpEYc51nPMEyivCpFeEDZcGJRsn+ZB7xLqd4xhQsgwifWhE+UFbc3/yEgmnFKoQIn1oRPlBmohGynu9KPPdoz7iCSYrwqRXhA6lguROttj/eM65gkiJ8akX4QCpE1rxUekdJnLEFkxDhUyvCB1LBvcg5djtdnLEFkxDhUyvCB1Ih+t+3cWbXDxE+tSJ8IBUQPp9E+NSK8IFUQPh8EuFTK8IHUgHh80mET60IH0iFyH/exASrfojwqRXhA6kQ+exV4kV/9owrmKQIn1oRPpAKkU8XIHx+iPCpFeEDqYDw+STCp1aED6RC5LPXED4/RPjUivCBVMDJDZ9E+NSK8IFUwOUsPonwqRXhA6mA8PkkwqdWhA+kAsLnkwifWhE+kAoIn08ifGpF+EAqIHw+ifCpFeEDqYDw+STCp1aED6QCwueTCJ9aET6QCtGNq4h3qekZVzBJET61InwgFaJfv0u8uJZnXMEkRfjUivCBVED4fBLhUyvCB1IB4fNJhE+tCB9IBYTPJxE+tSJ8acBxyBEHKbr9K4puWZuYO74mx+LyX0o7CJ9PInxqRfgU4cYuGqHoru/JmtefxOCLSPRuRKJX/cTs05jEsCvIWjSCont/JMeJyktIC9FNHxPvWtszrmCSInxqRfjU4Bh7yV7yGPFup3k+g6TtcTpFPnmFHBGWF6Oc6OZPiXer411HmJwIn1oRPjVYC4cR73iyZ/uX2e6nkf3ebHIsIS9KKQifTyJ8akX4gifiXuRb9BfPtk/Z/udQdPPnscPodIHw+STCp1aEL1gcYx+JcTd6trtfmk9p5ETT93sfwueTCJ9aEb5giaxfTrxXfc92981O1cnhB+TFKgPh80mET60IX7DY70wj3uGPnu3up9HvP5UXq4zoD/8l3r2uZ51gkiJ8akX4gsVeNIJ43jGe7e6nkc9fkxerjOi2DbGzzPI6wSRF+NSK8AWL/cZw4rlBh+9VebHKQPh8EuFTK8IXLGrCh298WS/Cp1aEL1iUhG/dUnmxykD4fBLhUyvCFywqwhddv1xerDIQPp9E+NSK8AULwgcTEuFTK8IXLErC98378mKVgfD5JMKnVoQvWJSE77s18mKVEd3xLfEeZ3jWCSYpwqdWhC9Yynv4nN2bSfSs51knmKQIn1oRvmBREr4ta+XFKgPh80mET60IX7DE5uArqObZ7n7qTm6aLhA+n0T41IrwBUvk45eJF5/q2e6+WVSdHMuUF6sMhM8nET61InzBEt3xDYlBF3i2u1+aU+5N67RUCJ9PInxqRfiCxX02hv3mGOJ5VTzbPmW71KTI+mXkpHEiUoTPJxE+tSJ8wePw/WSOv5l46CjP9i+zHf5I9quD0zoXnwvC55MIn1oRPjVEtn5J4rFbiOdV9nwGSZtXJfakNmffdnkxykH4fBLhUyvCpwb3d7joz9vIcg97ezUsnZy04Fji+VUSs1212MOKxJAWFPloTuy5vJkAwueTCJ9aET71RA/sosinr5C9aCTZCwYm5pIJFP1qZcYE7xcQPp9E+NSK8IFUQPh8EuFTK8IHUgHh80mET60IH0gF5+cfSPQM8ClyFUWET60IH0gF58AuEr0besYVTFKET60IH0gFhM8nET61InwgFRA+n0T41IrwgVRw9u8k0auBZ1zBJEX41IrwgVRw9mzFWV0/RPjUivCBVMDlLD6J8KkV4QOpgPD5JMKnVoQPpALC55MIn1oRPpAKCJ9PInxqRfhAKrjP++AIX+oifGpF+EAqRH/aiAeK+yHCp1aED6RC9Mf1xLvX9YwrmKQIn1oRPpAK0a1riXer4xlXMEkRPrUifCAVopvWEO9a2zOuYJIifGpF+EAqRL9eTby4lmdcwSRF+NSK8IFUiG5YTrxLgA9MrygifGpF+EAqRL5YRLxzDc+4gkmK8KnVekoj5+AeeTwDkBCRNS8R7/Qnz7iCSYrwqdWcen9saiEAyoK9cnrpozLjjC2YhAifWs3Jd2fEg6lBdmK7zwlud5xnXMEkPWz4/rOooaGzlZ4XwJQ0x91Izp4t8ngGICGs+SXE86t6xhVM2sVy82LQ+sX1DJ0tjfMCmIJiyMUU3b5RHs8AHBHHiZI5qz1xvZJnXMHkNHQ2X25eDPp8YR2us9flF8AU7VWfops/l8c0AEfEvRrAnHSXd0zBpDU09qzcvF/hGntBfgFM0fxjKbp+ufvPtzyuAfhdotu/IjH0cu+Ygklr6Gyi3LtfCeewx+UXwNS1F40iB+EDyeA4FFm3BDOz+KXGHpJ79yvhPo0Gc51FPS+CKSkevZSciC0PbQAOi2OZZC8cSlw/yjOeYNI6Vlumyb37FeuVAR24zg7EeSFMxdzKFPnmA3lsA3BYnJ9/IDHoQu9YgmXxQGRSm+vl3v2KOa/kNq6zH+K8EKaomHgHOeE9OOQFR8QdI5b7bS/3GM84gmXya2vNK83l3v2K+XJJU66xL+K8EKZqXhUyZ+bFphJH/EBcHCd2e6O9dCLx9sd7xxAsmxp7mz5fUE/u3W/gIfa2e0zseTFM3fyqZE64jSJfvkkOPyAPe1CRsU2KrltG5qx2xIuqe8cOLKuO0NkTcuc8WAPPHct1FonzB6Bf9jyDzIl3kP3WOIps+pgcEZZ3A1ABcMwwRb59n+wlj5E5+R4SvRrg8NZ/w/bEO3rInfMgRra6luvMjPMHoK9WIp5XmXhBNeIdTyLRtzGJEVeSOeF2Mqe1ic3qYs3MI+vZTjDbnRGKfZ7mE61JPHYLiUcvK41c4R9LP393HODujEA0NLbJntPlCrlzceGho7bLfwBCCLNN4162Uu7bYeH5xz4v/wEIIcw6uzR8VO7bYRE9696Mw10IYTZr6MwyJ9x8jty3w0LfrKlr6GyV/IcghDBbNEJsudy2I2K2ZgPwrQ9CmKVaVhsWkrt2RKzne1zMc9iXuKYPQphlOobGVtPKmY3lriWEVVRzNL71QQizSUNnB40+Z3aVe5Yw5tQ7z+EhtlX+wxBCmKE6hs4+EG8MaiL3LClEx5NG4nAXQpgVaswUg5t3ljuWNDTs+joixD72LABCCDNMQz868QuWjwQfd1MO19gueSEQQphB7hCz2x1+3r2ycDCHPYvJCyCEGapl6Gys3K2UEXP7NRL5VT+Ns0AIIUynEV544ut8xdO/P+deWTH7NrmV62x3nAVDCGF61Nh39tS7E5uBpayEQ6zEnePKs3AIIVQvF51OzpM7FQhG4YkTucaMOCsBIYRq1NhB3rnGw3KfAoPWzKrJi6o/hev7IIRpMix6Nxojtylw6P2X6nCNLUL8IITKLa41jf77Tk25S0oQq2Y1EQXV5nKNWQgghDBgHffODKPDH56WW6Qc+uS5Wrzoz5Pxmx+EMEiFzvaI3o2GyQ1KKyKvynCus73yykIIoQ/uE93O6CR3JyMQeuVCrlfagsNeCKEPujOtOLwt+/Zg/tFt5N5kFOZrJU15QZWFuNYPQpiKhs72G52qzzbzrjxT7kzGYraKXei8kessKr8hCCH8Hd1m/Ee0q9pd7kpWYIy78RJDY3Nx6AshTERDYzycw2ZYszteLPck6zCK69/J72UruMYOyG8UQljhdb8Y7eW5bJkYc1UruR9ZDY3uUtsuOrUr12MPMML0VhBC16iRw94T/f7WUW5GucJ+9eEWxoPsMaGxPXE2AoSwoqixn0QOG2m++3RTuRPlFmtK6+Y8r9Ji9/ocnACBsMLouBci83bHPmfNL7lA7kKFgQ9qoRsaW8p1JuJsJAhh+dD9He9AOMTe4uNuaC13oEIiVjzeiHeq3pfrbHOcDQYhzHINnW0QA8/ryFc8EcwsydmMtWTC+Tz/WHe6K/fBRrgEBsJsVmNRrrHtRsEJE+nyRmfJ+zuQEONvbBXW2WKhsZ8RQAiz0l2i4Pg59oTbW8j7N/gdwm8OqyVGtWpn6Ox9xA/CrNHkIbbcmtZGk/dpkAS06YN6Rm7lUVyLPeTIPfuLCEKYWbrz5Ln75m6jfdVuNKd1XXk/BmXEfLhVM96p+pOGxrbF2fAQwvTofhHZJHrUm0jDWzaQ91vgE+as9vfGprzXMPsLhGlVYwdE7tHz7FcGXCvvpyAAaEGnuqId68Bz2PeeDwNCGLRRnsO+tAqZTqseqyXvn0ABomf90YbGvjN0Zsf5gCCE/mlynX3D+zcbIO+HIA3Yz3a5Itz5L+71f5j6HsIANHS2nQ84Z5L1fHH2TxdV3ogUszZcZ6s5vv1B6JfuExSXRopr3yTvbyDDCPdp3MHQ2aZDX83lDxJCeGSFkV/1M967UY68f4EMxnxabyoGXTCea7EAYvYXCBPTPVraIK5mI41XB9eW9yuQJdj9zmtl5LCX8e0PwiPKhcam2uNvv0Lej0CWwotqPCDyq37szukf5wOHsELqPr7R0JjB2//hXbPbabfK+w0oJ5i3ndDP0Ni6Qz/aegYChBVIy9DZGtGnVgd5PwHlEPtJ7TKhsQmHpr+SBwOE5V33NrMtlsZGWvP6nCvvH6Ccwwf+7Z88r8ovl79g8gNYvtVikwlYIq/qPHvyvy6V9wdQwbD6NGjLQ2wV1zD9PSynamw/19gSs+Svd8njH1RgaH5JQzP/mEe4zr7G5S+wHOnOgrzO6Fq3iBY8hOmiQHzsZ9tfxnU2C5e/wHLgXh5ik61Foy+SxzkAcREjr7qa57KlXIvd/4vf/2C26P6Ot5vrlV6zZnU+Xx7XACSEGNC0I6a/h1miaWhsCR9xlS6PYwCSxlz9VDOhs1FcZzviDDYIM8EfeafqvWnNPMyCDPzFffI7zz/2eTz9DWaI7mHtD6Lw5CnmtQ3PkccrAL7Cx17fJqyxt7jODsYZjBAG7qF/fF+zp7bGtO9AHWLl9PqipGknw52RNs7AhDAIY/fW6uwjPvamXFo9E7OngPRAl59+Fu/wx0lcjz39Ddf/wSB0f1axDfewtmP1ofIYBCBt2FPuvkwUVJvrPls0zsCFsOxq7EdeXHNqePKd58njDoCMwJr2QIjrbCVmf4E+yN1HqZov9rpbHmcAZBw09u66Zt6xvQyd7TR0FsEZYJiE7pnaiKFX+lYUHJdP80vw+EaQXewfe10T3vOMSbHn/7ozY3gHOYT/qztL0Ebx0F9HyGMJgKwjsmDg9YbGXsXlL/B33M+Laz5hL3gY076D8gMtHF/HeoDlGTpbj0Nf+D9GuMY+NO9j/5bHDADlCj6g2cOGxr7FCZAKrTC0Suv4oItz5fEBQLnF7tvyEn4nm+yeAImzU8Dyqzs/3nfiBjbanNTmr/K4AKBCEOlwyq1cZ+/EDnm8OwksX9oixF62H2mB3/EAcOF9zgoZeVU/xwSo5dKDvPCkVWa/Jpj2HQAZPq/kDNGejY5Nf6/hG2A50OYa+8LMO7GX/FkDACTsMTe3NB9k03HyI3s1dLb7QA4bZ8zueLH8+QIAfgeja507jMI/vsfdJ93jEphs0J2k4gAvqr7EHnFVC/nzBAAkgehTp0jo7JNDV/bLOxvMAA2NmTyHLbH6nN1W/vwAAGXEmtv3goNt2RjDnWIc3/4ySffe2m/Cecc8REvGY9p3AILAnnTXP3jBca8bpWd/EcD06XC90v5wu+Onu/8oyZ8TACAA+MBz7+chthz3/yrXETrbI9qyN8T4W1vJnwsAIGBowaB6Rrda3bnOvsK3PzUaGlstBl6QL38WAADFWAtHXRzW2ZOxGT7i7KzQBzW2ywix4fT5/Cby9gcApBGr6JILhVZpsXsohm+AvuieuNhhtjt+upnT/Gx5ewMAMggx4sp8rrEVXMMF0Cl4gOvsdXPyPffL2xcAkKHQZy835oUnlRg62xFnp4a/73di0Pn5tGZBXXm7AgCyAHPomc3ChSdNN7TY4y9x+HsY3WejGG7wup46kiacd7q8HQEAWYiY+uAt7hO7uM72yTt9hVdju3j742cbMwoulbcbACDLoZUz61pjrm/HNbbWs/NXTN3fQFeYM9s9IG8rAEA5g0a3rG0U/bn09jctdv9vRToEdt+raehss+hcq6O8bQAA5Rxjyr+b8y6nTq9AJ0AcQ2ffGP3OGiuevBvX4wFQkTFf7HG/obOl7gNw4sSivBg2dDbPXvJYS/n9AwAqKPRSSR2Rf0JHrlfaXJ6e/+FO5iByj/rUDB2P3/EAAPExJuacJkqajY89/jKbp7/XmBnW2X/NYZf1ld8jAADExR5xYSseYrN4KDb7szcsmazGdoh8NtaafNtF8vsCAIAjYmmsjaEx9+lv7rTq3shklhGuseV2l1rXyO8DAACShj96aYjr7MtD8/9l0uUv7rrs4+2OX2Y+2uJ2eb0BACAlxJweTcxhl/c0NLbESP8ZYPfSlJ8Njb0qJt9dKK8rAAD4Cq19rf7BvOMf5Dp7LU23wLnXHT4T7tP0Rvrs1dry+gEAQKCIOV0aiv5Nu/GudZZyjW06NBegn0+Dc58tsst9oI/o1XAB7392W1o2vo68HgAAkBbMp/KaWTPzHrTG3DDW0Ng8Q2fuM4E3HZoZOpFLY9z/Zy/X2AZDZyuFxl40n2gzxJxV8C8xq31DeXkAAJBxmO/PPtte/ewVkdWzbosMPq+1obGuYZ0NFDobdlBjo1y5xh4Nh1iJaMs6Ribefn/kvVm32KtnXSJWzcItZQAAAAAAAAAAAACJ8X9fOS9ZuPbNOAAAAABJRU5ErkJggg==;" parent="1" vertex="1">
          <mxGeometry x="450" y="310" width="88.42" height="97.6" as="geometry" />
        </mxCell>
        <mxCell id="P6rAqNPpL9qjwtg3nNR0-1" value="" style="shape=image;verticalLabelPosition=bottom;labelBackgroundColor=default;verticalAlign=top;aspect=fixed;imageAspect=0;image=data:image/png,iVBORw0KGgoAAAANSUhEUgAAALwAAADUCAYAAAAm7kmcAAAAAXNSR0IArs4c6QAAAARnQU1BAACxjwv8YQUAAAAJcEhZcwAADsMAAA7DAcdvqGQAAABmZVhJZklJKgAIAAAAAQBphwQAAQAAABoAAAAAAAAAAwAAkAcABAAAADAyMzABoAMAAQAAAAEAAAAFoAQAAQAAAEQAAAAAAAAAAgABAAIABAAAAFI5OAACAAcABAAAADAxMDAAAAAAIvvHMbnUA7gAAAwNSURBVHhe7Z1Bax1HFoX1C/IvBmYlRggMEsQQ0GJWXmSYhWclTNaBEAhZmGGWYUB6FpYYMBNibLIIIWBmFbIYyMLkZ3W4RypF7td66ttdVffeqvPBwY5jq7v6HvUr3T5dtbdHCCGEEEIIIWSSozenw975wbD34tEfOj8Y8OeENMPVybB3cTzIrx/9569buvv/x/+UkDB8/PYZ7uJjg++S/H38O0Ki8OXP/x72zvbvvaM/JNzpz/YHfB1CXCPz8stPtky8RPJ18PUI8QYMenG8ZdocSl93fExCqvPkh8+Hvc3h4unLXGGaszkccDxCavOv/1+umqcvVZrf4/iEVOHiaNh7+XjLjDUlx8d5EFKKP/33bzDZ2HyWkvPBeRGSi6c/fVVlnr5UaX6P8yRkKd/8+up6np6pzVhaaGOe7Q84b0JUyBzZeJ6+VOncx0MiZIu/fPcPdRzAq2QcGA8hYz773z+vk4xO5+lLhfn9+cGA8RFy+dv310YPMk9fKszvzw8GjJd0yk0sd2yOlsUYcocsie22JsaQO2BtbLc1MYbcMhlju62JMeSGQEE7m6cvFWPIgakV221NjCEHwyq225oYQ46AtNyCxgG86jqGfEzTe+LP3/7dXWy3Ncn1xXUmdiAO22AcwKtSTIEx5Mps3r8OFdttTSmGjDqQwsjF5jzdhTC/l3qQ/GD9xc7jAF4ldeH6mJloNbbbmhhDXglirPLgiPP0UMIUZ3PIGLIGXDjGAUKLMYUZpNgupy9tCNMcxpC3+fqXc8YBGlaKKaDO3SN3dLYZuxDamL3GkK9X8eI8vUdJ3btZLe3TH79gbJe6jSHDDy3C2C41pTZjyIztUg+oiRgyVr1ibJdSSPwSbrW003fPGQegFivFFOAjzyAu2sEqXlQdpdXSfMaQGdulCslVDJmxXaqWTGPIXMWLslBqY1ZbLY2xXcqDqsSQcSDGAShHKhJDxlssjANQTpViClnetkKWmd0XKoDEp6uy9/iOodmpQBK/Lr/Tnx9sfUGK8i48/NSCPAPn7FRAiW/1eRze3anA0t/l2X6kAksVNUYYnw+WqMAS/85+qQSPbRsyfAq2SdYa3/lJ8mcd/5yC6zK+Ho3UXcYxO37QguHTmijy630D/+bXV9dbu8jfk2+G4GOeo3Rd5PdTd0C09HA9Yk9puzL80peDMW55otzoswcxsap7ITeBoJ+AXRgedy/5WF6J3Plbe2NLvpExLiVRn7Q3b/hkzvFY1oBiB/9oF+FTawWY9kXzQ/OG17ShFGCeG/gFF7k7zy78LoJ92jVt+NLLt+GdyqCmRycmF4GuQbOGX/YYWQ+uSbDpTY6fZ+4SKW7SruELTWWmwJw+yHUR6R+vzyDIN327hi88nRmDYwa4y8k5FtlXNci0pl3Dr+xALCJA0aV+y3PhO9gcbh3Lo9o1fImP7Tmc7W+diyepCq4hSIpWNX4afiaO73aqgmug4W1laXhs4eL0hzhVwTXQ8LayNLzg9SmkquAaaHhbWRtewHk469yoCq6BhreVB8MDZ50bVcE10PC2cmN4wVHnRlVwDTS8rVwZXnDSuVEVXAMNbytvhvfSuVEVXAMNbytvhhc8dG5UBddAw9vKo+EFbLxr2LlRFVwDDW8rr4YHhp0bVcE10PC2cm14wahzoyq4BhreVu4NLxh0blQF10DD2yqC4fFebOXOjargGmh4W0UwvFC7c6MquAYa3lZRDC/U7NyoCq6BhrdVJMODi6OtMZSQquAaaHhbhTO8UKFzoyq4BhreViENLxTu3KgKroGGt1UJw5++e579a44p3blRFVwDDW+rEobH+DMvYjQFVjgudJ1VBddAw9uqmOEvjtft+TmTUp0bVcE10PC2Kmb4m11DZl+0NRTo3KgKroGGt1VJw+Prv3g0XP72ffZjbJG5c6MquAYa3lalDY9jnO1nP8YkGc2kKriGjOdYUqrxjwvuWTUMX+o4Y7BDR6bpjargGmh4W5Uw4tT4sZ2OqDBPf/oqyxYzqoJroOFtVcvwONblJ8PRm9PsxxuDVX9Xdm5UBddAw9uqpuFxvJePy6zKO2blQylVwTXQ8LaqbXgcM0DnRlVwDTS8rSwMj+M679yoCq5h4fnUlmr8cwruRVaGL3XsMUs7N6qCa6DhbVXCdHPHj65Nzl3y7mFJ50ZVcA00vK0sDY/jX51U6dxod9BTFVwDDW8ra8PjHGp1bhR3eVXBNdDwtvJgeJyHs86NquAaaHhbeTE8zsVR50ZVcA0zju1BqvEvLbiFPBm+1PmM2bx//WDnRlVwDTS8rUoYbM34a3Vu8Brijjm9quAaaHhbeTM8zunqZEBXpTC7Ojeqgmug4W3l0fA4r5ePhxovg+PTZML0qoJroOFt5dXwOLeLowHz7dJMmFBVcA0Tx/Io1fhzFbyGPBteVOL8Jhm1K1UF10DD26qEoXKPv0a7Es8A7mzAoCq4BhreVhEML6qxzg2e9t50blQF10DD2yqM4St3blQF10DD2yqK4UVy90XysTQl19Sh4W0VyfCiap2bs/35BddAw9sqmuFFJc55iiLPAWh4W5UwT43x1+jcFIGGt1VUw4tkZYLxsd1Dw9sqtOGvTgasQRMJGt5WkQ0vqta5yQUNb6vohhdJ5warE0SAhrdVC4YXlRhHEWh4W5UwitX4Q3RuaHhbtWR4kfvODQ1vq+YMf3UyYN8nr9DwtmrN8CLp3GCHP4/Q8LZq0fAi6dxgL1dv0PC2atXwItmte3xu5tDwtmrZ8CJ3nRsa3latG14k05vxOZpBw9uqC8N76tzQ8LbqwfAiOR8XnRsa3la9GF4kD6XMOzc0vK16MrzIvHNDw9uqN8OLTDs3NLytejS8yKxzQ8PbqoThsaCR8/GbdW5oeFvJ8nLj81/Lx2+fTa7I601Soyc/fJ59/DvZHG6dh0e1a/gScdogdzGRjP/rX87zX4P7uDjeOgePatfwVyf53wkNUtSkWp0bXOcAn3yiZg0vyjmP37WrhmdV6dxE+uRr2vBXJwPm3Tl4YLMwzyppeiwnEuhG0LThRVmeQga6g90nGUPuFRAwldmxgZpHNW94kXRsFv8AF6T7MEdizlwtS3xyBjO7qAvDi+ROr1mHHd8gDdzZx8Ia8S8eqa7FXdKOIpGmMXfVjeFFKPbmcOe8HmOU7kbgcc4RroW0bjeH6NnDyDvAQze5LgHv6nfVleGTbostdyopokh+L3/WwPi0wvWQrXemrklj10VleHzMNzJwqk+Jf2f/PIePveAfaVTfEv8+NH37kDtbIFJUNOkzVkF/OqcoEX5eURP4qSPVrxa/KxA1V0L1K/Hr0mcP10iriqanAui2Db0WfDF2bSjHSv4ce3cxCGZJGo93e8qRcFc/218fHLwPLAYkT+dofMpQKT5SbXEqpPGCvRlEtSHxXa40qB5p8DOGQFWQ+Ez/QKkAyCxwfk8VUpqnz87G1AJxXEYSqIwSP+2KebsAJ8r5PbVCyT9jb7kFSbUOXrCg8grz9M2hMunoCLxBI8tocH5P7RDm6ecHA/zSAsg3cH5PTUh8cfTmtA2jbyEfWYwpUDdxAPihdbBuikxzOL/vUjB5gfVz3IMFfhhT6EZpnp59LdBoYBk3vmzStKS+dnEAr8ibKpzfN6XbZUHINIwht6Hisd3WwM4WnN+HU4rtVt+ZpBVwERlTCKFwcQDXMIbsVm5iu62BtQI5v3ejNE+fvYYjWQZjyPYKEdttjptlGcbFoMopLdsyLgWpBGKkjCkUV4oDhI3ttgZjyGXUXGy3NRhDzie5juuWrSP1kEfajCksUrp240tKnMMYsk7dxnZbgzHk3UpxgO5ju61xvVoaY8h3xdhuDzCGfBPbXbhxAIlHr6ulMbbbOb3EkBnbJR8AUzQaU2Bsl0zS2mppKbbLOADZSfQYMmO7ZBERY8iM7ZL1BIghM7ZLsrJ5/9plTCHFAXB+hOTm9N1zFzHkFNvF+RBSGsRmjWIKclzGdokNMneuFFPgKl7EBYjTFmxjYp5+ts/YLvEFNsnNOL9P8/Rqm+8SsoQcmzbbbr5LyBIWxJAZ2yWhuY0hP9C/T/N0d5vvErKE22VEZA1G6bQkyX9zGQxCCCGEEEIIIYQQ0hW/Aw5+CNxhG9JmAAAAAElFTkSuQmCC;" vertex="1" parent="1">
          <mxGeometry x="460.01" y="730" width="88" height="99.23" as="geometry" />
        </mxCell>
        <mxCell id="P6rAqNPpL9qjwtg3nNR0-2" value="" style="image;aspect=fixed;perimeter=ellipsePerimeter;html=1;align=center;shadow=0;dashed=0;spacingTop=3;image=img/lib/active_directory/generic_server.svg;" vertex="1" parent="1">
          <mxGeometry x="540.01" y="810" width="39.2" height="70" as="geometry" />
        </mxCell>
        <mxCell id="kj_RsDwCSLxTljiV3b98-2" value="" style="shape=image;verticalLabelPosition=bottom;labelBackgroundColor=default;verticalAlign=top;aspect=fixed;imageAspect=0;image=https://upload.wikimedia.org/wikipedia/commons/thumb/2/29/Postgresql_elephant.svg/800px-Postgresql_elephant.svg.png;" vertex="1" parent="1">
          <mxGeometry x="60" y="550" width="77.58" height="80" as="geometry" />
        </mxCell>
        <mxCell id="kj_RsDwCSLxTljiV3b98-3" value="" style="shape=image;verticalLabelPosition=bottom;labelBackgroundColor=default;verticalAlign=top;aspect=fixed;imageAspect=0;image=https://www.simplilearn.com/ice9/free_resources_article_thumb/ASP.NET_logo.jpg;" vertex="1" parent="1">
          <mxGeometry x="454.01" y="530" width="107.1" height="91.11" as="geometry" />
        </mxCell>
        <mxCell id="kj_RsDwCSLxTljiV3b98-4" value="" style="shape=image;verticalLabelPosition=bottom;labelBackgroundColor=default;verticalAlign=top;aspect=fixed;imageAspect=0;image=https://dac.digital/wp-content/uploads/2023/11/react-logo-optimized.png;" vertex="1" parent="1">
          <mxGeometry x="454.01" y="621.11" width="100" height="100" as="geometry" />
        </mxCell>
        <mxCell id="kj_RsDwCSLxTljiV3b98-5" value="" style="image;aspect=fixed;perimeter=ellipsePerimeter;html=1;align=center;shadow=0;dashed=0;spacingTop=3;image=img/lib/active_directory/generic_server.svg;" vertex="1" parent="1">
          <mxGeometry x="137.57999999999998" y="610" width="39.2" height="70" as="geometry" />
        </mxCell>
        <mxCell id="kj_RsDwCSLxTljiV3b98-6" value="" style="shape=image;verticalLabelPosition=bottom;labelBackgroundColor=default;verticalAlign=top;aspect=fixed;imageAspect=0;image=data:image/png,iVBORw0KGgoAAAANSUhEUgAAAQcAAAEACAYAAAC+rrMfAAAAAXNSR0IArs4c6QAAAARnQU1BAACxjwv8YQUAAAAJcEhZcwAADsMAAA7DAcdvqGQAAABmZVhJZklJKgAIAAAAAQBphwQAAQAAABoAAAAAAAAAAwAAkAcABAAAADAyMzABoAMAAQAAAAEAAAAFoAQAAQAAAEQAAAAAAAAAAgABAAIABAAAAFI5OAACAAcABAAAADAxMDAAAAAAIvvHMbnUA7gAADH+SURBVHhe7Z1/pF1Ztu/PH/3XdT3vj+tqrZSr/2itRMQRpRzHcZSjlIj7R7RylXY98Vztqj+iPa2V1rSrtNbaEUeUKFGilSgRJaJFixIREeUoEREtSomIKEdERBwREev5jLXG2mOPPdePvc/Ze6+99/gyrb3Xmmuuueac4zvHHHPMuZayQCAQSGDJnwgEFM9evZDw2l8ILASCHAKVuPHkbrb1/cXsxetX/lJgARDkEKjE9tN72dLFX2QPdnf8pcACIMghUAk0h6WTq9lvts9kr17H4GLREOQQSOL169fZJ/fOZUvnNrKlz97Ldl4+81ECc44gh0ASP7x4ki1d/iBbOr+aLW2uZH+5c95HCcw5ghwCA0BrwBC5dH4lWzr/brZ06r1s6dSGEEZgcRDkEBjApR9uZktfbWRLF9aypQvvyrAC28PH25/HtOYCIcghUALBF2KQ4cRKtvTVuz1yOLWRLZ05lt1+et/fFphTBDkEBBDD5/f/ni1dOprbGSCGPnJ4L1vaWs+OXPkk/B4WBEEOASEGsTFABAwllBT0eKYgh8L2cP7+dZ9EYA4R5LDgQAuQKUu0hQvrPUJQciCc3eiRw9Z69qMLH2X/ePrAJxWYMwQ5LDAghl/d3sqWvjzcTwieHPo0h5wg1i7/Ljwn5xxBDguKkhgwPCoZeIKoIgfCyVWxPzx5+dwnHZgTBDksIPo1hvVBTcGTgx1WGNsDxxM3TwdBzCmCHBYMA8RgCcETgx5T5PDp+zK8IHx045Qs7Q7MF4IcFgi7r18aYmBWAkenCltDo+YAQeT2B4YYf7j1RSzOmjMEOSwIcIk+cfe00RgMMXhS8ARRRQ5Og8BPgucE5gNBDgsAenTxYyg1hgQBeJKw11iZ6UnBE0RhgwiCmB8EOcw5eouo8GMo1kpYAqgjiLbkkCCIwOwjyGGOQf999fGt/kVUKeG35/25iy3JQQNDjE/fz67t3PbZCcwYghzmGDgpySIqJQarKaRC6vqw5KAEceZYdun+jRhizDCCHOYUTC0uXf1VbxFVSivwpGC1iWGHFQOBHaSOCkEEZhNBDnMIfBk++PZPBTFsDGoEVvA9UfjzI5NDQRDnjsc6jBlFkMOcATVell77hVReO6gjg33RHIpwclXWYeBjEZgtBDnMGWQ7ed2TwRNAihhShODPf/luMRuREP7GsFHuQRkEMVsIcpgj9OwMZjGVF3r/22oIPq6ehxwGhL5l0CnOzZXwopwxBDnMCRC6fF8GiMGsmfCCnvqdCpYsRHNICP4wgRmM00fC/jBDCHKYE4g/Q5WjU0rw6/7bc3vVHGw4uSobxcQ+ELOBIIc5AB+ckeEE7tG6ZsJrCVbY/XUbxxMK6e2H5qDh5Gp2/MpmDC9mAEEOM45yOGGXYPve3//3RDBACOa3OkHtFzkQttazrx/d8q8S6BiCHGYc3z1/1BtOeOG3xOCDj1P1H3LYr2FFGTaypbMfxvCi4whymGEwO/Hzm7/tzU5YcrAC7v83kYS/vu/kkGsPbBIT7tXdRZDDDOPco6tpZycv6P7ohb+KKPQcn8Tbz2GFCbHNfXcR5DCjEJ8G/dBtaken1LGKCPw1Hwdy0A/b7GdgevPc8Wzn5VP/eoEOIMhhRlF+6NbOTnhC8ITh41Vd82mNixwIhXNUDC66hyCHGQS7PS9dfD89O+H/W5Kw5zwB1MUfJzmgPZz9UAyrgW4hyGHGQA/7m3+c6f/QrRfslJDXXfPkoMShYYw2BwknV8U4GWsvuoUghxmDbOBitQYv2F7o/fmqc3VpjFNzIBSu1ZcfbvvXDUwRQQ4zBLQG2UHabuDijykSsMdUvNQ9kyQHQvEFraevdv1rB6aEIIcZAlb9cts3FeQ6AvCC7q9XBZ/WJMih0B7Cc7I7CHKYIfR2kXbCmyKEtgTg0/LXJ0UOLO0uNoaJz+t1A0EOMwKxNeiekF6oU8Jed83/98GTxCTIQcPWeuxc3REEOcwI+rZ+84KcEnYv4Dak4vn49r4JkwPaQ9gepo8ghxkAU3zlGooqQfcC7a/5/8PEnRQ56K5RW+uy3V1gughymAHIvpAirGblZUq4vdBXnfP//dGfmxQ5aNhcEb+H2PNhughy6DhYtShOT7JfQ0J4/X9/3p/zJFEVz8edJDlI2Mgev3jmiyMwQQQ5dBzl9GWdIXIY4bchdd2nMQ1yKGYuWHMRmB6CHDqOSz/c7G0a64W5SrDtse63Pefj+HQmSQ4azhyTLfAC00GQQ4fBsuz1b37fv9W8F+qqY9M5f93H9fGmQQ5b67HfwxQR5NBhyBZwMqSoWJrdFLzgp/63OcdxGuRQbEbL5/0Ck0eQQ0fR+6xdzZAi1dP7Y5Ww16XjfxOmQQ6Ez47GtOaUEOTQUeDbIB/D1e3mqwQ3Jdj+WtO5NuenRQ6nNuRTeoHJI8ihoxB3aRFMlmY3DCnseR/Hk4de9/9T6dlrUyQHtpLD/hKYLIIcOghcf248udvzbfAC7gW/7r8/N2qYJjmcOZbd2LnriykwZgQ5dBAY4GRIYfdt0OB7dD3nf1eds/fa//68T2Nq5JDPWpy4edoXU2DMCHLoILA3LF062nN88sJqhdYSgBf6prhV11LHaZLDqY3sZxdOZD+8eOKLKjBGBDl0DAwpbj+9X9gZzEdxUwKbulYVz5+rOvo0O0IObAQTQ4vJIsihYyinMFNrKbwAp/7XCbuPkzpv7+8SORSzFrEYa3IIcugYaPy/ur1VPYWZEm5/LnW97nddfA1TJYfcIeqnl38d+zxMEEEOHcPAjk9W8OtIwAu6F3Cfhr/eFDpADkxpxvctJocgh45B9m7whsg6ofbn7f8UUfj7fTo+nh6nTQ6E00dipeYEEeTQMVx9fKvf3uCF3Att1Tkv5KnfnhD8NXvuTEJYJx1OrsqUZqy1mAyCHDoE7A2f3Ds3uMN0ldB6AfYC3uYe/9+f099d0By21rMfXfhIhl6B8SPIoUMQ/wbsDfZrVikhrxL41D0poU/Fsff6c10hB2YtNleCHCaEIIcOgfUD5ToKL5xW0KuE3v/2wp+63nRNQ1fI4eRqdun+DZnyDYwXQQ4dguzfIN/BrOi9vUB7UvD3+Puq4qfi+GudIIc8MKUZ+0uOH0EOHcLZh1f6NYeUEHuhrbpedb7Nf3uvHrtADuwtyWfzzh0PV+oJIMihQ5BdptXeYIXUC7oVWh/XxvFxvfD7NHwc+79L5BCrNCeCIIcOoVyJmRJiK6x1v71QVxGA/+/v99e7QA4aCn+HmNIcL4IcOgKmMWUzWfvhmqpjW4FOBR/H3pu6pue6RA6nNrKPtz8Pchgzghw6Avk+hUxjJsihSmD976a4qXhNpKChK+Twaf5FrFiENX4EOXQEskz7yi/7fRy8UHuB9ddtvFRcH68q3dS1rpADYXMlO3Llk1iENWYEOXQE5x5dzbehtwZJL6xWYOuE2gcbt+q+1Dl77BI5FDMWEGpgfAhy6AhkGlN9HKqE1Au5F2wbx8e39/j7/LlUml1YW1GGfF/Jazu3fTEG9hFBDh1B/tk79z3MOiFO/a67pyp+igx83M6RQ/49CzwlA+NDkENHIOSg28J5AbVCWvXb35c6n7rXx/dx9XfXyOHT9+NTeWNGkEMHgM196/uLg+TQRojtOS/UTdf9b3+vvadr5LC1nn396JYvysA+IsihA2BKLveOhBzcp+9SQpu65uP4az5e1dGf09A1cthckb02YzpzfAhy6AAGyCElzG0E3//391adTwUb92KQwyIiyKEDYL4+945MfDDXC3QVEfg4/re/3x9Tadpj18jh5KoMxcJLcnwIcugAdl4+y35+87eD5OAFOyXM/nxVXP/bp1111N9dI4et9ez4lc1whBojghw6gCcvn/eTgxdM/3sY4W462vTq/neQHPCSpOwC40GQQweQJAcvoF6ghz2f+u2fUfU/yGEhEeTQAfSRQ0rQvdCmhNweq855gW+Kr7+7aJAMchg7ghw6gKTmkDpa4bYC7+NUnfP/q9Kz5/R318jh1EaQw5gR5NABDGgOPljB9oLsBd9e9+n4e33cVJoaukYOoTmMHUEOHcAAOaQE1Atw6nzV9dS5umPqvrN8zDYhpNMKQQ5jR5BDBzAwrLBC6gXe/06dG/a/f07qWkfJIaYyx4cghw4ARx75srbdBSolpPa8v27/p+5Jxas678mii+RQOEGFh+T4EOTQAfS5T6eE2wqsP+cF3J9rG8+f98/tKDmEh+T4EOTQAQysyvRC6gXVC33qnqpr/nxVHJ9W18hhcyW7/HA7vnw1RgQ5dAR9m714AU4JdiqOv151n7+3TTodJIfYJm68CHLoCK4+vlWQQ4WvgxXWuv+payrgXvBtvNR5e71r5HDqvdgJaswIcugIRHOw38m0AlsluKnrPm6KIFLxUvHtua6RQ2wTN3YEOXQE20/v9bamTwmpFWwrtKnrVUf/297n7/ehS+QQn8SbCIIcOoK+j9qkhNcLuz3vr9WRgD2XCj7NLpLDydXsRxc+yh7s7vhiDOwjghw6AqzusuELdocmIbZC68kgdaxLz1+rSrNL5LC5Ins5PHv1whdjYB8R5NAhiCOUnbGoE3D/34eq66k09XfdPV0ih6317KMbp8LHYcwIcugQ2BMxKdj+vxduG8fHrfrv70+lWx43ukUOp49kJ26eznZfv/RFGNhHBDl0CN89f5QLYpWgeoH251LXvODb/23Oa+gKOWCMPH1EiDQcoMaLIIcOgZ5w6dLRZiH3Ql11TN1v49hrVUf93RVyOLkqMxX/ePrAF19gnxHk0CGwxmJgF2ov3KlzXuD9eX9vKq4PPp2ukAPfyTx3PGYqJoAghw4BNVk+qPvl4Xx44XtxFWgbUsLshbzqWupeG98+pzPk8F62dvl3QQ4TQJBDx8B6gaXzK2nB9f+tEPtj6r66eP4e/a+hE+SwIcMKvpEZ9obxI8ihY/jhxZPcGUr8HQrjpBVSL8hVQm1JwP/2wcfzcbtEDrHgamIIcugYmLs/cfd0PrTwwpsihNQ5f5+/7o8+vo9L6AI5MFNx7niQw4QQ5NAxoC7ny7cZWrT8yE1KoP11f97/9nF9/C6Qw+ZK9vH257H704QQ5NBByDoLWaHJzlAJvwcv2J4IfDwv7P63D/5e8tCJ3ac3sr/cOe+LKzAmBDl0EAwtynUWKcH1v1Mk4a+1IYNUPP534aM2DCnOfphd27ntiyswJgQ5dBAMLW48uduzO3ih9QSQOmfvqRP8uv/l+S5oDhuyEhODbWAyCHLoKNhyXbwlUwuxUiFFDqn7/O8q4vDXp0oO2Ds2sj/c+iIWW00QQQ4dRbldvZ21SAm4JwIv1Kn4Pk5VfHucJjkU6ynCZXqyCHLoMGRogXCqz0NKaKuEvYkI7HkfN5X2lMmBIcXOy2e+iAJjRJBDh8FmJvIlrJTPQ5UgV13zcfx/H9df/ywhtBMM7N8QmCyCHDoMZvPPPbra83nwgu4FuEqwffAkYONXpT01cmAviQ9lOXtgsghy6DhYYCQbz1ZtH1cl2D6krvu0Utf09xTJgYVW4fg0eQQ5zADka1gytDBLub3wpoTan/OhijhSx2mRw9Z67DI9JQQ5zADEY1K0B7Na0wquF3R/LXUuRQyp34Tz72ZLnyYEd+wh922IL2lPB0EOMwAU6k/unateb1En7P6/v2bvTaWh5DANzWFrPdylp4gghxlBn+2hSribCKAqvj/n405LczhzLDZ1mSKCHGYIPe0hIdh1v/25KiLw9+nvLydMDp++L1oDO0wHpocghxkCTkBLlz8Y/CpWSqCt8KdCXTz/H3LwAjyuUBADWkNMX04XQQ4zBpm5UO1BBdn+Tp3zRFAVLCHY9CatOWytZ7/ZPhPrKKaMIIcZgyzIKreRqyAGL9yeAPyxLg7Ltc9NcKOXQmuI3Z6mjyCHGURvp6iEQFcJvI+Xuu7T4Dhpcji5GqsvO4IghxkE3oIffPunaq9JK+A++DipeNMih2KPyLA1dANBDjMK+XReuZWcE2j/2wdPBP4eeyRMZP/IfNv5+MxddxDkMKNAe5BFWXa3KC/4XvjrSCB1XX9Pghw2V7LjVzbDG7JDCHKYYZRLuv03Lryge6Kw/z2ZDJyfxBe28/S/fnTLv2JgighymHGUwwu/IUwVEdhrPl7qv+wfeSwh0PsYTq7GlvMdRJDDjKP8vma554Pbyr6JBPw5Syakxz6W544PCvR+hZOr2c8unIiNYzuIIIc5wMB+k3aI4EMrUig0Boydl46K8A4I9X4EZie21mM40VEEOcwJ+pZ1W+0hKfiJc/6a/F/Lli7+YqzkgBFy9/VL/zqBDiDIYY5w9fGt3nb2XvA9IdSRhfzeyNO5/EF25MonpdFw30KxaeyTl8/9awQ6giCHOQL2B/wE8mXdZs9JSwapoycSDWghV38lvfv+kkOeVny9qtsIcpgzoKKXn9LzGkFKY7C/vfZwfiX76eVfF+TgBXwPYWs9u/xwO5ydOo4ghzkES7vF/0G9J1NaQkpb8ERyflU2dxVyOH1kf7SHYp+GmLbsPoIc5hSVu1b73ynC0OP5FbE3/OnrLwpfhz2Sw8nV+N7lDCHIYY5x9/mD/u9telKoIotSc8hdms9evyzfjtgTOWyuCDHEtm+zgyCHOYd8Uk8XaHky8P89aZxfkS9NXb+5nb3x1//O/RK80DcFdnbaXBFyCY1hthDksACQ3aPKFZxuDUYlWbDL9ZoMKW5u38p9HUYhh5OrQgzbT+/5bAU6jiCHBQDGv3x7OYYXjiBs6CMIHKDez7auXhDNIfd1SAh/XYAYPjsaHpAziiCHBQEu1rIGQ1ysKzao7RtS5A5Q2Buu3fhGSEKGCJ4AqgJaxukj2fn712NmYkYR5LBAwK+gT4NIkYMEvCNzH4evrl/Nrty4KcdWRkndPfr0EXHICtfo2UWQw4KhHGKITcF8e9PbHs6viI8DxED4+80b8l+GCnUaRLFBLEOJ2AdythHksIAoCcLOYvSRRG6MZBpTiYGj+DsIMSS0B9UYzn4oO0eH9+PsI8hhQVFuM2c/klNqD7kxEjLA3vC3G9eEIC5dv5bPWqA9eHIoFlLFdOX8IMhhwSF+EP4L3vy++IvSGAk5QAw97eForiWotnBqQ0gjHJzmC0EOARHqci9KtIbCGKmEwBGCIPBf1lpACmgQZ47Jl7BDY5g/BDkEBOz6nH8LY0WmOyEA1Ro0QBIMLwji93DueL660icWmAsEOQRKsJu1+EJc+aUMH3B+UlKwJAE5cO3OD9/7JAJzhCCHQB/QAtiExRICvzXwH5+Ha7e+zV6+DB+GeUaQQ2AAL168yG7duSskYDUGSxbbt+9IvMD8IsghMACmOe999/0AOVjtgeuvXoWT0zwjyCEwAByYvn/wUMjB2xuUIHZ2HvvbAnOGIIdAEmgG3u5gj0+fPvO3BOYMQQ6BJO4/fFh6RXrNAWPk8+fxwdt5R5BDIImdx0/6yMHOWGCsDHvD/CPIIZAEmsHVb78xmsP1khwYcgTmH0EOgSSYprx++9uBYQXhu/sPfPTAHCLIIZDE7u5uSQ6WIK58czN7tBMLrBYBQQ6BJHZfvBBHJz9jwVAD4gjMP4IcAklgcLx777s+Q6TOVIQxcjEQ5BBIQh2hvObAUCPIYTEQ5BCoBLYFrzmgTcQWcIuBIIdAJfCC9JrDw0c/+GiBOUWQQ6ASSg5KEBzDbXpxEOQQqASLq5i6tD4O4Ta9OAhyCFTi6bNnMjuhWgNEwbnAYiDIIVAJfB2sIxS/ORdYDAQ5BCrBlCWLrJQccIqKaczFQZBDoBJMWaojFEOLmMZcLAQ5BGrBMIIZCkIMKRYLQQ6BQCCJIIdAIJBEkEMgEEgiyCEQCCQR5BAIBJIIcggEAkkEOQQCgSSCHAKBQBJBDoFAIIkgh0AgkESQQyAQSCLIIRAIJBHkEAgEkghyCAQCSQQ5BAKBJIIcAoFAEkEOgUAgiSCHQCCQRJBDIBBIIsghEAgkEeQQCASSCHIIBAJJBDkEAoEkghwCgUASQQ6BQCCJIIdAIJBEkEMgEEgiyCEw9+Djv3wdvM0XwvlMsMatC+OCpt/mg8U+Tza0ub8JQQ6Bucadu/eyj/+4KeH3fzqZfXHhYnbp719nX/3t7wOB81tn/irx6gJpfXr2i+zy19ey7Vu3s6+v38x2Hj/xjx4aNq9/PvVZdv7i5WReOffZX78s3ykVPtk8Je96/ea2hCdPnvrHNSLIITC3ePrsWfafH/2/7J/+7WD24wPvZG8eWs3eXF7N3lhey944lB/lXPFbw78eeCf7l58fzv71rbd74cA72RsHV/J7ijTeXF7Lfvr2evb2e8fkOb/9nz8LYYzyNXLu+fC/TpR5feOgyavmtwiS30P5uR8fWJH4PyFv5j3yOKuSv4PrRyV/EN/3Dx76R1ciyCEwt7h1527237/5ffbef/wfERCE/H//bDn7yYEVEXaOhFzA8nNcR9jXj/2yL3A/gsb1f/7poZIwctLIhZTfb62+n/37L/9LevdhSOLBw0fZid99Ivfy/B8fWpXn9PL4Tk4CxW8hr+J5hJ+9syEEwT1c4zdB3rM4Qm6rRz7Irly70WrYEeQQmFsw9n7x4oVoEKj/CCxkgWD73piAEKGK3/vu+2xn53H2aGdHjoS7974r1XqGFAgZpCA9NoKo6fC7EGiEnZ66jSAS5+XLl9nz57vZd/cfyFAATUS0FdUKNJ+HVoVE/nblanbtxjfybmgsDDXI///99cfZm4fXy7yV+SrekbzxHk35CnIILBSePn0mBEHvqio6gf+o9S9evvS3DADSgTDQTBBgem7up7e3pMM5riG4oxgxsWMwHEBb0Xwi4Aj+5+fO++gC5B2CQRPBJvFvxTBJ75c00D7eeju7uX3L396HIIfAQoHeEqH+0Rs/77M9IIC//v0fs+e7u/6WRpAexIJGQs9sBVEEc3lVevRhCYL42AmEyAoNAHJgeIOW0ATuR0MQDedAfr/aV5QM64Y+QQ6BhQMqu6rdKiyQA8OAUcgBcN/m6c9zgjCCqASBQDOr0aTKW7x6/VpIQIcCSg7YFxD6NoAgGAZhi7BDEzG8vvV2rYEyyCGwcLi5/W1uoCzU7b1qDgpsBv/zl63S5qDkoEMMnvnw0Q/+tkqoYGPsLGcjDq5IOtgZ2gLbCTYSOzwRojmY2x6qEOQQWDgw1sYWYMfi+0EOAIJgKGCHGNpbM02JvYM4baDkoJqDpDUCOfC8P578VIZSMj2qtoeDK0JmVQhyCCwc0BwgB4xy1uawl2GFBcKohkQlBh1eoEFcuXbd35JET3PIpzBH1Ry87eLNQ7kfBEMUCLEKQQ6BhYOSg9cc9oscANORPKNPe1heE+2BqcY6Q6CiT3PYw7ACssLjErtHmY6klRtKqxDkEFg4TIIcAKq8OCE57YEhB74UTdgvm4Md6uSaQ29KcyoGSVnsMoRl1mMYq+5+wTqiMN89zjyQdl36XKOh4sBDqIu7H6Ah8t4Ensezx/1Mi76yf/FirM/25LDfwwoFxkdcrK0TEyo92gNC32R7KDUHY+AchRwoT2tzIB2GGAx96qZXW5GDVhyNBocO3C+94Etjfr4rBY8nGi8FWzG+Yh6YDNaB+0mf+Hh+MS2EykOgIOpeYlTwDru7u/JOf/3yK5k2YtEK87+MxXgHrLnbt+/sWViELF+9knIkPZxYvIstcSgnvU7lfXD8I8kP5UHZUMb7BQgQ9RcvO9LXZ3FE9SUPlP/9hw8ln6n3553ofYbNl5DR7q7UtdYzTju27Ckfph2po9SzR0WfzaFYi7BfBkkLyow6FNdloz0gmLh0Nw0tPDlwPxrEsORA/eCSLTaHwimKtOq0BpAkByqCjLOSC/ajMLGy0mjwuOLFEGQFXmcIEQ2KQqegCWSG+VXmlGGu1MowIYWnz6Rx4BJKIah/uKZBmnii7cfKN4CA0uApeH0nngmj8zz7bI48n0qmQpoqVCFluLsrecabDgGk8dkyohyZZgI0BNLnOpXHdY5qjOI/+SQfey0H3p8VgJoX3puA2sk762IjnsnzWVtA/TNPTx1S97wTbYOVgzTWuikxC57NfRAPREBj1bLXMrd1wJw++RSSaFn2TZiU5gBo16StqjxCSdlSrrT7OqRsDiU53L7joycBaWNvIA/cT7lie6BDbCLcAXKgJ9GeG2HFaCHsejBPWAtRe0L1DuOaVrAyk64qoyC4hnDYAkF4qHRYjftUOLUgtOK4n+vkZ6+Cwf1oCXYRDXPACB3vxbuQH/JAXsgDYz4p3IMr0lARjDrQiCEDtBDxwS9W8pEm6XDknUgLYYEgID/GprKoR1cAquGoKAfNE6QyajlQvwg6hM2zED7em0YIgVNH2svIWJnyLxx7eAcIirIjlI5Ey6uiTTYBUoFMeCbPJvAsykHLnvLS9xRh0LI/tCrxIPW9wpKDli3P2G/NAVAuPznYszsQqHueDUHXwWsOYic4uCJ5R+6qoBoo5Y32zlDGth1krokYwAA5UElkQgVdBJXlo6ah0LiePXsuQkYFM5YhwwgvPbEKFwypYxwKhTQRGHofVBrS4V7O02B0BRwNT3owYzDifp5F+pDKKOCZ3K+aCc+h8FhUA2kh1Ag+PTiMT160kapwci/vWcf6EAPlwbtxv19SqyQAo/Ns0iMu58gTZcFRe3LxpzdBiXLYnpQem3fiOaTBbxqvTUeHPQiKPLsgBe21+K+GLd6LfCPUKa3QgvckHs8l8I50QAhIWfaPn0ijR6vQstd317InjSZ1uAlec9AyHQc58H709GX9F4RHoBOuE9I+ctBZD46FJk7atNW+cPuODMdoW3R4KkfUlWjfDR2bxQA5yJj31m1JHJYpexATKFhemIZBJSJgCASNTyuYiice99PbSKEUag0EBIFACjRyxvoUFA2IgPr6hz9vSSGIcMr69LWyF0Fw6wo1BXpM8iqEdyBnX96zLh0aIb0V+dR3V+Ik31UCQaXyHrwXZKRDAyU5DZShqvQ0el1Vh4rOkTKkDhCKvHEUawGKJbiohm2hXnIyfEAoDq/X9sIIK8KSa0w9guY+ypG0IDDer6kcKQslpVzTWBMBrbMjUba0E55viVHLflTNCVTZHMYxrEAYKSvagL6DCntrciiGFVoH+erK3CVbOl+jzUG6dvm2PK8gV9oTbQZZqHuuYoAcLBB2ZR/bqGlcPAxSqGIiHg6zCUOjQbiej/P0EGQ0BXowSMK6uRJG0R5oaNo4Jf9vvV07v2vBvQiuFLTxLqOR8v5NhQzBiGpnNCh5l2KsTcNB1a5yq+V8uYrQNBD+N1mbFcQhD7rYSHvJhqyLAJI/rT/166fBoprSQ6nNpAqotgizDg048r5toGXf6yDyuXneg4be5t1TUHL4yVvarsY3rIBkeX8rAyrsbcnBap5aBqoRKLlxnXOUjWqsWmfSqRSLrYhHfki3iWBryQGgBfQZb8jk8poIV9NUDKAX1IbBfRQSDQxS8DMeKdAAyx6zeMGmMZcFBUxDEo2hYG0ZFhiDahPIK0KijVQqA+vxwZVKobagnFTA1TuN36TZxuqM2u097qgP7m+qYIAAqxanwwGEuw1krl49CQvNgVmFNtDGLZqXCMQ7ojG2aTcK3l3LXoVL81On+dTBDyvGqTnwrpYcyPew5KDxtQ7QENBo0TR1jwnIH20buUTrl2eaTWHkuYX8iiwcXJE2VVeGjeRAw9LhBYWIcY7evO24DyHkflEPl3OhoBevUsk9KFzVXpR1KRwEvg3IZykYRSOoWgtfBSoQklLmtQ2KiqirYAWVJppLYZxEYKQxtpwCZNjGfWVFm6FRHcgbawlUa9DxZxtSAUyf+rl66qMNKHu1HzG0JA9tNTYLGr+UffF83oOyHFV78AZJ6nNcmoMlBy0/FXbaVF3+U5oDR+SP9mChEwQE3gGhx54kw/NDxfRlMTykHSHH2kFVyXIjObBpREkOReZIsMnSqiCzGEJUuMkkL0cFtREqACtKAZmeA8NmE3g2RIAglg3r4MpQY3WFDk2k91YbSlFRbRqUkoO1G6AyVw3LPNBQqIe8t8uFFcFrEjbKAOHKHWDyRkK+25IzWpNsW6a9bEtyQCtUf34te8qurcZiAYGSB6ua8xsBb0uuFnZYoZrguDQHbTfW5sBv1d7qZCClOWibazuVyfCbuOTBah/S0RZ1UjX7NRQ5SOMoyKFt5lRAdTqFQmFY0XYfO4AAoM7mL5V7mNFjN6mnVIwaFPNKyQu2LbFZ8KxSxbaFfHhdDG5NYGZHtCcZVuQNEttJ05hdoUMLyk/JhWfTeOpA+TPGF9W+mBaGINoMh4A2bu1l25IDhm2dGRKN5623pezbDgcteAd2U9YOSho2Bt6WZe/RZ5Acs+ZAr6wGSSm/YsaP8kC26lCSg3GfLsmhQWP0oM1TH3Z4Q2D3Kso1pQEPRQ7aKHnZtpXMA1FNYam818rHTDRYn5kq6OYclhxYatrkdUnDsbYCKoj/bQXDA/WcwrWCQr7aGNgsOei9w5ADPaQ6SOX1kD+7aUcgSw7qa0Fo6rUUOsshvV0x3m3SVoD1ykNj4d0hmSaBqAKNW0leez2GKpRrnWqegrc5KDmMQ3PgWZSZNSbLc5fXkr21xX6SA0Bm1cCspIhcUEcMfXzdtCYHNYbpsGJUcpA0Dq0ONV6kYVDAOqwoyaFBc2D4gJYizy2MiHshBxbLqP+BVjSVjPrcBCUHsTmMQA6o6QzPyrHrwRURjiZyoPwpB7U5UIbaU7QpfxqhztOjeSHwbRYNqa+Hlr2Sw6hlD9F7ISNd2kGTBukxSZsDJCz1jjNh8SzKHwP1sOQg770HcgCkJ52l87ugPLCBWLQmh71qDiVjFgU0KjnQICAH1MwmcuC5ZQ9Br7lHciAfOu7XgkVAm1R7oA5j+v7DkgPliJ2lHMO31By4jyFg3kDzmSYV1DYzNmgJohIX02fq1VkHrXOIWcbay7nw7YUcsH30tcOiHBniDOsMNqlhBeWgM2VlvRftl3Jtmq3rJ4eiY90jOUDsIhNueEGg87EYihyUuUYlh3LcNSI5aOMehhxUc1CVmoIdZZwKEGQ7cyINawhy6LM57IEcpBdqqTkAjJ7qTCUzD4UwNN1rZ4oIOgXdBEsOqjlwP1pH23bjgc0FYuobmi2vyVCgqR14TEpz0Jk6a29AKCmXNm2w1iA5Ijmgraj3qScH3t9iKHKQREYkBx1W7JfmMMywos87cXmt9U48HjRQGqOWhbzL8mprclDNQe8dlRyG0RwA96IyUm463uVImdLIUpqAGpJpjCKQy2utG6QOZfqGdMVwss2CnxR0S/m+MiyGdG3bkcJrDqpN7bfNgV5a/GGMAFIH1GOqzD3GQg47j6XdSZqmLXLcs+awF5uDMijMPwo56CKwtuRAAeoUGPfxbBpX2xWEHlju7TcPCOSrDdkoOZCPnCCHm61QcuBdcnJorzkAyorGj+1BCOJwYTtZXpN0MbbyfgR6NeoH4iP+MLNTCtqHeLeq6l74OeyVHNRuI2Pww5R9+1kvxSQ0B/JEehCQdojSbpbXWsuOkoNM46uNYI/kwLBOyKFIS4ihKEvv/9OaHHTctB+aAy85CjkMaA4NY01YEiusCiXPpYJgyLbPtqAnkLUSziBZtwhL0RtW9HqRUcjBDitSFVoH1FzKHYEtXcmZhSimGckPvhf8RpCVfNqowB7e+U0FkLJv02t6aKPW9FQDauuvYaEbzOrainGQA21WhVnrnDLHKalt26POKX/dCUo7572QAzIhU9POZ4Rzvp4byUGdb/aqOWhDVCEdlRzIQ1tywFClqqg2AiqLhtFGoD10X0BtVKiMNNg2PZefyiQvo5CDag5SFsurrZzBLHQzGe6jTNVTjrohfwTyBelQx6MIMuA+bATq56BlD+GMUva0wzy/PRsG7bJtG7KwMykqIEoOw6zZqQLvV64JMemT32HenTJkVkm0Bj+sGFKTUzDFrBqdkhZ5S+2K3UgO+zWskBczY/+RyaFQdWm8TULJdeb4RZjMsykYhHVYoDmoIGmFtx2i2KnMvWoOOlYk0AhHAfUqc94H3pG6oNFgrOJIb+wbyrCgbil72QtCVeJibD+Mj4uCfIkjl+kgmtYmpEB86kLbgs0XAtJmBqcO+KMwfIN0VaApY8hoWIHWoRTpaJ1TlqTVZiibApqIdNKGbNBAWeTo0UgOqobsBznoGG9P5FAMDZitaNMwrDOONiyd0myaZ7Ygryrg5IP0hlkjYt2ntWGOQg6ln0PxLsOSA0KPWq11iprfphxHAW1HbRv6yXjaAPXR1m0ckD/KT4cU5JvebxRBJi0xtJoy1HaNAbVtfaSguy5ZpyXel3TbfLjWo0cOudZVktnBlVaOdx50bjqkEGIwQ72ULDaSA4VVrikoMjYMOfBQKrY0IhVMPQw5wLilQbKoSG9ZrQJzyVSY7XFVuFld2LaHpBx06bHe37bnIg6GpXxYkTdG1GPZ8q2lkFhyUJKkLlDd24D7aRxiJCs2bCGQB661eY9hQf0ym6D2DRVGym4YFR47gBqWETbCKNqHgmGFupNbDYL6Se2P2gTyQSdBe5J2BjkUxICs8LxR8krnRf34GQ/KgWe1lR+ge5OUnUuxxLtuo55GcoAErNMEgklFeeNFFRC+3gc1egaQYQxpWLhLVbowSLbxSlRYwdYC5j3IB2pWk+2Cxkk87texOZpL28ohni4+kwZpVmW2FRDSQKB4vpID+YD42oBelt4WQS3LshjLYiRDu6NOGW7QYzG7QU9Iw9Gdmtq+rwX3l0Zh01NT9qxVaTIAUj7lAq4DK1JuvPMoC64A7ZGOyTukaZugrSPMvC+hSqg5T97JB9PEkIC848HVcu0Egj2q0xdAoHtae284qloOmmxT2+UdsJXJfp3FvfnCr+YtDyvJgZenQam7pe11URXRBiiYdNEVhfd8V8jFOq8QSA/BoDFSwFUVQGMkDa9O81udmaru9SAu9whBiAaTazL8J32ue0ElbZa+yrTe4XzPSQKs3aZxcj9p0kBoPKo5qWqsGhgNtu4tqGDGhMSXz7wbVRjBozEjhHVlwXXKTRqasXuQjgoupE9jxMbEkId60yMCiRAwxEMDGcYrUQ25JTEZRyzaAdd9efIulBukrHG1rnzcJtCOIDieIzNnRkVXcsiJorekHWGi3pkVQIC4l+EYeSLgFk07UOcyAmVLoAzJd1WPXAXNJ22O59Gh6JoWza+te7Rp8kjbpV7IK3XDf9oVR4hfh9WUH0fkoA3BDpADL0QB0lurxVULU5lW/i+vyQNQrZk3toKFOkQa9K406Jz5+l+QXoBMkwaN21pxaXi6XbysRDTEIKEwIMGekBTjOQqlTjiALl0lP6IJFfsUkBaNlx4KjYZ3Ik3ygHDQW2EEpTK47kkkBVif+0lTlzzbytXek2u6PRxlZt8BjYfzmoYlSE1HBR6tgvvrnJogevFzKPb2LNPhd6FmaiOisfPeOm2LUKu2pWU1zPicxqpTm2V7OJgLPenRDqhvyh0S0rInH+RZn9nUoFOgfUJCYoDVzXJdXdi2xXvmWkC+nkS0Ne1QzH/yTt6IS9uAqBHWUbQF6h3CoR7VUCz1Xfj22DxqnmWKU+0bhYxyL8LPb65pHml/nIfQILkmWQED5MBYjgSX/tcb0jiUFfmtQc/xUOJ5n3kEiPNcJ+g9Ng0VOH2OtWGoAdLen3q+pkHAcNNmrEg+qQCIhfulcE0hcmS6TWdFCBQqRDeMww1CTQVrmjpWFpWz+E1AUPQdvWGIRk3D4DrxqGB7rw1aFvQUVaqmqtQ9Ac3fUxpesa8BhMn7aygbZbG5rKqlPA9hqNtJyAMyYQpatQjyreSs5SS2pUO9sqee0BZoH6MMayBySEnLmGfYIB2FKUfqpyzngng1HkHbPedoF3SgtA0IrWrTlDZAg0aOkAdt3415NXnUdqVx9V01j9Q7pNDkOGgxQA70wIwFaWRUJIlCGDC6PXKe6zRoztnelEZAnLaBXqJP89h5LL0cjUKf74NujUXFwIacayu4DJcQPHpsGrj2FsK2RW/MOdRphJzeuErgqkBjQQhgciqHXjAVuEbj5bneoo2mg3CQBhqUv9enQUNo8kBEwHRtv2gCB96RhqgCYQlYtcaSQLSXLYgEISFfw/TmaIWUJ1oCeci1ll760rMXszDE0fH/qEATpg3RlmjXBNqM/kaj8OWZCrQFZIK00Cw1b2jJwwhcFcinbvVm86mB//rRH583G3gf4qqc6pAzpU02YYAcxFZQGFoI+mkyHzjPdQQt9WAfvyn4e2kQpK1GoVTguTafwwJBge3pldAodKzGORowJOfz1hZUCEytRj562FTguRAyZOXHqLyXpkE8f69NgzEqeW4zvcd7QSaQAD01DU7JhyMB0oSUVIODKErVu1Rr856r7ayNhZa9lrMve95r2DRTULtVMuzmBldfnj6QJ/LIPXVGyr1A8mnkLhWo27q2ROB9iLsfeRwgh8D8goZNj4L9Qnt9ehYaEz0gAcIVYn76TEgLTYSgqzP7bCfGlb1p1iEwewhyWBAg8LJZTGEHEYFuORxQK3qf27F8LyG3DYwygxDoPoIcFgDYc+j51VAFSQzj469AVUWbUGOYag5BDvOJIIc5BxqD+plgH8CGwNh0VGB806XTSg5MQ+7FaBjoJoIc5hj09NgLEGT1LIUo9tLLY5OQaVrdaHd5TazibaaRA7OFIIc5BoKsbrPqsi0rD0cYUiiwP0AOOucvi6iGWMAWmB0EOcwxLDmoV6msRq3xp28C2ggEo/4Q3jcjMD8IcphjILT6KTldz0BvP8peFgqIheXXOhWa8nEJzAeCHOYcOMWoy7NsLMtaicPr4lw1LEgLTQRiwNV3L+7Cge4jyGHOgfaApsAQQNyUi29I6CKyNh6V2BmYwlRiwHsSF+zAfCPIYQGAnwM+9zlB5Ps46vZtCDrkwYwDLtyyXdzOYyEDVnmyRgSffl3uztqCMEAuBoIcFgTMULCwR1dB6gpLhhkQBZqE7ucAYXDEGzJ3mV6R/+wpETaGxUGQwwKB4QELnHTPAOwQuj+BbCpilihDHBACGgcaBMOPmJVYLPx/N5+wr3MNrnYAAAAASUVORK5CYII=;" vertex="1" parent="1">
          <mxGeometry x="220" y="540" width="123.28" height="120" as="geometry" />
        </mxCell>
        <mxCell id="kj_RsDwCSLxTljiV3b98-7" value="" style="image;aspect=fixed;perimeter=ellipsePerimeter;html=1;align=center;shadow=0;dashed=0;spacingTop=3;image=img/lib/active_directory/generic_server.svg;" vertex="1" parent="1">
          <mxGeometry x="300" y="610" width="39.2" height="70" as="geometry" />
        </mxCell>
      </root>
    </mxGraphModel>
  </diagram>
</mxfile>
